<?xml version="1.0" standalone="no"?>
<!DOCTYPE svg PUBLIC "-//W3C//DTD SVG 20010904//EN"
 "http://www.w3.org/TR/2001/REC-SVG-20010904/DTD/svg10.dtd">
<svg version="1.0" xmlns="http://www.w3.org/2000/svg"
 width="1840.000000pt" height="600.000000pt" viewBox="0 0 1840.000000 600.000000"
 preserveAspectRatio="xMidYMid meet">

<g transform="translate(0.000000,600.000000) scale(0.100000,-0.100000)"
fill="#000000" stroke="none">
<path d="M0 3000 l0 -3000 3383 0 3382 0 1 118 c0 64 7 140 14 167 13 49 12
51 -21 110 -29 52 -33 67 -31 123 l2 64 -62 -60 c-33 -34 -75 -66 -92 -72 -17
-7 -40 -16 -51 -21 -34 -14 -155 -47 -260 -69 -55 -12 -140 -33 -190 -45 -130
-34 -249 -55 -315 -55 -31 0 -81 -4 -109 -10 -29 -5 -75 -10 -104 -10 -29 0
-69 0 -90 0 -22 -1 -44 3 -50 8 -7 6 -46 12 -87 15 -57 5 -65 4 -35 -3 22 -5
55 -9 73 -9 33 -1 38 -7 23 -30 -7 -10 -23 -12 -70 -6 -33 4 -61 10 -61 14 0
10 -103 2 -114 -9 -4 -5 -12 -27 -16 -49 -6 -32 -4 -41 6 -41 8 0 14 -4 14
-10 0 -5 -5 -10 -11 -10 -8 0 -10 -16 -6 -50 5 -40 3 -50 -9 -50 -8 0 -19 12
-24 26 -19 49 -12 186 9 207 18 18 13 24 -36 37 -79 22 -265 120 -313 165 -25
23 -58 50 -74 60 -39 26 -76 107 -69 151 8 48 -12 43 -31 -9 -37 -98 -55 -172
-46 -181 14 -14 12 -23 -4 -23 -8 0 -12 6 -10 12 3 7 -2 18 -11 25 -12 10 -15
10 -15 -4 0 -9 -3 -16 -6 -16 -9 0 -33 27 -28 32 2 3 -9 11 -25 18 -16 6 -37
20 -47 31 -18 20 -16 43 16 194 10 44 16 118 19 223 1 22 6 32 17 32 10 0 14
6 11 14 -5 11 -9 387 -5 479 0 16 -8 38 -21 50 -23 25 -27 43 -11 49 5 2 10
29 11 60 2 48 5 58 19 58 33 0 40 24 35 110 -3 55 -10 91 -21 109 -19 28 -23
75 -10 104 7 14 3 17 -18 17 -19 0 -26 5 -26 20 0 11 5 20 10 20 15 0 12 57
-2 63 -10 4 -10 8 1 15 10 8 11 14 1 32 -6 12 -10 23 -8 23 2 1 13 11 25 21
20 16 24 17 38 3 18 -19 19 -44 3 -62 -32 -35 -36 -43 -31 -68 6 -31 23 -36
23 -7 0 13 7 20 19 20 11 0 23 12 31 31 11 26 18 30 42 27 17 -3 33 1 42 11
19 22 27 61 13 62 -7 0 11 12 38 25 28 14 41 22 30 19 -66 -20 -125 -27 -179
-20 -34 4 -69 8 -78 8 -9 1 -15 3 -13 6 3 2 -13 12 -34 22 -61 27 -121 88
-153 154 l-28 60 0 -48 c0 -33 -4 -46 -11 -41 -8 4 -9 -1 -4 -16 4 -14 3 -20
-3 -16 -5 3 -12 -7 -15 -22 -11 -56 -17 -80 -32 -116 -8 -20 -13 -36 -10 -36
3 0 -1 -13 -9 -29 -21 -40 -36 -139 -22 -145 6 -2 4 -5 -5 -5 -15 -1 -23 -31
-8 -31 16 0 -4 -30 -20 -30 -14 -1 -14 -2 2 -14 14 -11 15 -19 8 -39 -7 -18
-7 -27 2 -31 9 -3 8 -7 -3 -15 -13 -9 -13 -11 3 -11 18 0 22 -17 8 -39 -5 -8
-14 -10 -21 -6 -9 6 -11 4 -6 -4 5 -8 0 -14 -13 -18 -25 -6 -26 -10 -5 -31 15
-15 15 -17 -3 -25 -31 -14 -69 -117 -43 -117 6 0 4 -10 -4 -22 -8 -13 -17 -49
-21 -80 -3 -32 -11 -58 -17 -58 -7 0 -9 -28 -5 -82 10 -136 19 -188 30 -181 7
4 8 -11 4 -45 -3 -29 -2 -54 4 -57 5 -4 9 -29 9 -56 0 -30 4 -48 10 -44 12 7
16 -14 30 -134 6 -52 13 -98 16 -102 2 -5 7 -40 9 -80 3 -39 10 -78 16 -87 7
-13 9 -1 6 46 -6 69 7 85 18 22 4 -22 11 -43 17 -46 11 -7 64 29 61 43 -9 52
-11 83 -5 87 9 5 84 -78 94 -105 5 -13 0 -27 -16 -44 -21 -23 -25 -24 -37 -9
-11 13 -15 14 -23 2 -14 -17 -65 -40 -76 -33 -4 3 -11 -20 -15 -51 -8 -66 -22
-60 -28 11 -2 28 -3 16 -2 -25 3 -73 28 -146 81 -243 8 -15 13 -37 10 -50 -3
-12 -3 -16 0 -8 5 11 11 8 26 -10 l19 -24 -6 34 c-10 47 13 37 31 -14 18 -51
17 -65 -1 -41 -18 24 -25 18 -14 -11 5 -14 17 -23 30 -23 19 0 19 -15 1 -15
-4 0 -13 -4 -19 -8 -9 -5 -13 -3 -13 7 0 9 -4 16 -10 16 -13 0 -1 -29 22 -52
21 -21 40 -24 33 -6 -3 7 -1 20 5 28 7 12 12 12 22 2 6 -6 9 -12 4 -12 -4 0 2
-13 13 -29 18 -25 19 -30 5 -35 -9 -3 -976 -6 -2150 -6 l-2134 0 0 1289 c0
849 3 1292 10 1296 5 3 10 2 10 -3 0 -5 74 -9 168 -10 93 0 202 -5 243 -11 41
-5 180 -13 309 -16 215 -5 493 -20 530 -27 8 -2 20 -6 25 -10 6 -3 99 -6 208
-7 108 0 228 -6 265 -12 101 -17 545 -41 1007 -54 460 -12 499 -15 585 -31 29
-6 236 -24 320 -28 47 -3 148 -10 225 -16 77 -6 148 -12 158 -13 9 -1 17 -7
17 -15 0 -7 5 -10 11 -7 6 4 8 13 5 20 -3 8 -1 15 4 17 10 3 70 231 70 266 0
13 6 35 14 50 7 15 16 43 20 63 4 21 18 54 32 75 26 37 26 42 29 229 2 205 15
276 72 415 57 138 168 273 267 324 32 17 52 33 45 36 -6 4 2 7 18 8 44 0 229
67 323 116 79 41 197 84 333 121 31 9 57 21 57 28 0 8 2 9 8 1 4 -6 25 -15 47
-20 l39 -10 12 -80 c14 -98 48 -166 121 -238 28 -29 55 -66 59 -82 4 -16 16
-41 26 -55 11 -14 20 -40 20 -57 1 -40 9 -40 33 0 10 18 44 59 75 91 56 56 58
57 116 58 32 1 63 1 67 0 16 -3 121 62 189 116 114 90 232 223 199 223 -6 0
-11 7 -11 16 0 8 -4 12 -10 9 -6 -3 -7 1 -4 9 3 9 1 16 -5 16 -6 0 -14 -12
-17 -27 -4 -16 -14 -37 -23 -48 -9 -11 -23 -32 -30 -47 -8 -15 -17 -25 -21
-23 -9 5 -38 -26 -39 -40 0 -5 -16 -13 -36 -17 -19 -4 -45 -14 -58 -22 -12 -7
-44 -19 -72 -25 -27 -7 -55 -17 -62 -23 -7 -5 -16 -7 -21 -4 -6 3 -15 -1 -22
-9 -7 -8 -22 -15 -35 -15 -12 0 -30 -9 -40 -20 -27 -30 -114 -28 -152 3 -46
38 -125 87 -140 87 -22 0 -93 119 -93 157 0 27 4 33 23 34 26 1 97 7 115 10 6
1 12 6 12 11 0 5 4 7 10 3 5 -3 19 4 30 15 14 14 28 19 41 15 26 -8 46 36 20
46 -9 4 -22 2 -29 -4 -9 -7 -11 -6 -6 8 6 14 4 16 -6 10 -7 -4 -26 -10 -43
-11 -29 -4 -29 -3 -13 15 11 12 14 21 7 26 -15 9 -14 29 6 75 12 27 23 38 32
35 11 -4 11 -2 2 8 -9 11 -8 17 4 27 10 9 15 9 15 1 0 -24 17 -9 38 34 22 45
20 60 -3 28 -11 -15 -12 -14 -7 12 5 27 4 29 -11 16 -9 -7 -24 -11 -32 -7 -9
3 -24 -3 -35 -14 -16 -16 -20 -17 -20 -5 0 8 5 15 10 15 19 0 7 93 -18 138
-30 53 -87 112 -108 112 -8 0 -12 5 -9 11 4 6 -1 17 -11 24 -11 8 -15 15 -10
15 5 0 2 8 -5 18 -11 14 -11 15 1 5 20 -18 30 -16 30 6 0 19 42 37 60 26 6 -4
10 -5 10 -3 0 2 4 18 9 36 9 30 8 32 -12 28 -63 -13 -119 -17 -113 -8 3 6 35
14 71 17 63 7 65 8 65 36 0 15 -5 31 -10 34 -6 4 -8 11 -4 16 3 5 3 22 -1 37
-5 27 -6 27 -85 25 -72 -2 -80 0 -80 16 0 21 16 37 45 44 16 4 15 5 -5 6 -15
0 -32 -5 -40 -11 -12 -11 -12 -10 -1 5 8 10 27 17 46 17 36 0 95 -18 95 -29 0
-5 11 -21 25 -36 13 -16 25 -38 27 -50 3 -19 11 -20 113 -22 93 -2 107 0 87
10 -12 7 -20 16 -16 20 11 10 -18 39 -54 54 -26 11 -31 18 -27 36 5 17 -1 26
-22 38 -35 21 -148 35 -157 20 -4 -5 -13 -8 -21 -4 -8 3 -23 2 -32 -2 -10 -5
-27 -10 -38 -12 -22 -4 -39 -29 -41 -58 0 -11 -1 -45 -2 -74 -2 -53 -15 -61
-25 -16 -2 11 -2 -2 1 -29 3 -39 2 -47 -9 -41 -8 5 -6 -1 4 -12 9 -11 17 -31
17 -44 0 -33 -35 -36 -56 -5 -14 22 -13 27 7 65 12 23 19 44 16 47 -2 3 -15
-14 -27 -38 -32 -63 -63 -114 -83 -136 -10 -11 -15 -26 -11 -36 5 -12 9 -14
14 -6 4 6 26 14 49 17 41 6 42 5 35 -21 l-6 -26 62 7 c47 4 64 3 70 -8 12 -18
-7 -39 -36 -39 -12 0 -35 -5 -51 -12 -15 -6 -46 -13 -67 -15 -22 -1 -41 -4
-43 -6 -8 -8 22 -73 39 -85 10 -7 18 -22 18 -33 0 -10 5 -19 10 -19 6 0 10 9
10 21 0 16 4 19 18 14 32 -14 110 -17 128 -6 18 10 18 11 -1 9 -45 -3 -95 3
-95 11 0 12 30 22 42 15 6 -4 39 -8 73 -9 63 -2 129 -24 74 -25 -18 0 -28 -7
-32 -20 -3 -11 -10 -20 -17 -20 -7 0 -9 8 -5 20 4 11 2 20 -4 20 -6 0 -11 -8
-11 -19 0 -28 -26 -47 -45 -31 -10 8 -15 9 -15 2 0 -12 -89 -10 -109 2 -6 4
-11 3 -11 -3 0 -6 12 -17 28 -26 l27 -16 -28 4 c-17 3 -34 -2 -44 -11 -14 -14
-13 -17 3 -29 33 -24 80 -14 188 40 100 50 122 57 94 29 -9 -9 -8 -12 7 -12
15 0 16 -3 7 -12 -7 -7 -12 -19 -12 -28 0 -10 -9 -27 -20 -40 -11 -13 -20 -27
-20 -31 0 -4 -10 -11 -22 -15 -13 -4 -30 -15 -38 -24 -21 -24 -64 -15 -81 16
-7 14 -21 24 -35 24 -12 0 -30 7 -39 16 -9 9 -18 14 -20 12 -3 -2 -6 -38 -9
-79 -5 -79 -12 -109 -28 -109 -6 0 -7 8 -4 17 6 16 6 16 -11 0 -18 -15 -19
-15 -21 15 -2 18 -7 38 -13 45 -8 9 -7 14 5 19 23 9 21 49 -3 51 -11 1 -25 -5
-32 -13 -9 -11 -8 -14 7 -14 19 -1 19 -1 0 -15 -10 -8 -16 -20 -13 -28 3 -8
-6 -18 -24 -24 -24 -9 -32 -8 -45 5 -14 13 -23 14 -60 4 -49 -13 -106 -14
-144 -2 -24 8 -24 8 -2 9 15 1 22 7 22 21 0 11 5 20 10 20 20 0 10 19 -12 23
-13 3 4 2 37 -1 33 -3 63 -10 67 -15 4 -6 13 -4 23 6 9 10 27 17 40 17 36 0
49 33 42 108 -4 35 -12 71 -19 79 -12 15 -53 35 -73 37 -5 1 -11 26 -13 56 -2
34 -10 62 -20 73 -20 23 -72 51 -72 40 0 -5 -5 -1 -10 7 -5 8 -10 36 -10 62 0
35 -6 54 -26 77 -14 17 -32 31 -40 31 -21 0 -35 36 -33 87 3 39 -1 49 -25 69
-15 13 -36 24 -46 24 -20 0 -36 50 -28 87 6 27 -19 72 -45 78 -12 3 -55 7 -95
8 -67 2 -76 0 -93 -22 -14 -17 -19 -39 -19 -80 0 -65 19 -101 54 -101 35 0 46
-21 48 -86 2 -63 10 -76 61 -95 26 -10 27 -14 27 -77 0 -37 4 -72 8 -79 9 -15
61 -35 72 -28 16 10 29 -23 32 -85 l3 -65 45 -16 c50 -19 64 -47 53 -112 -4
-28 -1 -42 12 -57 18 -20 17 -20 -14 -20 -23 0 -34 5 -38 18 -10 41 -105 69
-192 57 -74 -10 -81 -18 -85 -109 -3 -74 -2 -81 20 -98 14 -12 36 -18 56 -17
88 6 159 -1 165 -17 11 -28 -27 -38 -156 -40 -110 -1 -125 -3 -134 -20 -6 -11
-18 -24 -26 -31 -12 -9 -12 -12 -3 -13 17 0 43 -26 35 -34 -6 -6 28 -10 54 -7
6 1 14 -3 18 -9 3 -5 18 -10 33 -11 25 -1 25 -1 -5 -9 -36 -8 -83 -2 -83 11 0
5 -4 9 -10 9 -5 0 -10 -9 -10 -20 0 -21 -9 -27 -47 -33 -11 -2 -28 -8 -36 -15
-12 -11 -15 -7 -20 20 -2 18 -1 39 3 47 8 14 -9 50 -37 79 -6 6 -25 12 -41 12
-33 0 -42 17 -42 86 0 37 -3 43 -34 58 -43 20 -65 54 -59 89 4 20 11 27 28 27
13 0 25 5 27 11 2 7 12 7 31 0 39 -15 190 -14 205 1 7 7 12 44 12 95 0 81 0
83 -30 98 -16 8 -36 15 -44 15 -17 0 -31 55 -24 99 5 32 -13 49 -72 66 l-35
11 -3 75 c-3 75 -3 75 -36 87 -42 15 -157 15 -191 0 -25 -11 -26 -14 -23 -97
l3 -85 50 -17 50 -17 6 -65 c6 -76 18 -95 62 -99 27 -3 32 -7 30 -28 0 -14 -2
-46 -4 -72 -1 -28 -8 -49 -16 -52 -8 -3 -13 2 -13 14 0 13 -7 20 -19 20 -11 0
-21 5 -23 11 -6 18 -157 20 -190 3 -38 -20 -48 -43 -48 -113 0 -59 0 -60 45
-92 l45 -32 0 -77 c0 -54 4 -77 13 -78 96 -13 111 -26 71 -61 -22 -19 -26 -20
-40 -6 -17 17 -64 20 -64 4 0 -5 -4 -7 -10 -4 -5 3 -10 -3 -10 -15 0 -12 -4
-19 -9 -16 -5 3 -11 -1 -15 -9 -5 -14 6 -20 29 -15 6 1 7 -1 3 -5 -13 -13 21
-35 49 -33 16 1 34 -1 41 -6 7 -4 12 -1 12 9 0 20 16 11 31 -17 8 -15 8 -19 0
-14 -6 4 -11 2 -11 -3 0 -6 8 -11 18 -11 9 0 -3 -9 -27 -20 -24 -11 -52 -20
-62 -20 -10 0 -19 -4 -19 -10 0 -5 -7 -10 -15 -10 -8 0 -15 7 -15 15 0 8 -4
15 -10 15 -5 0 -10 -7 -10 -15 0 -18 -41 -29 -77 -20 -22 5 -24 8 -12 16 11 8
11 12 2 16 -8 3 -13 23 -13 47 0 47 -17 70 -60 81 -21 5 -25 12 -28 51 -2 43
-1 46 34 60 60 25 67 37 65 112 -1 37 -4 74 -6 83 -7 21 -84 55 -120 53 -16
-1 -53 -2 -81 -3 -44 -1 -52 -4 -62 -26 -7 -14 -12 -50 -12 -80 0 -30 -3 -55
-6 -55 -22 0 -101 26 -112 37 -18 18 -47 16 -67 -4 -13 -13 -18 -14 -25 -3 -6
10 -23 11 -64 6 -35 -4 -56 -2 -56 4 0 5 9 10 20 10 13 0 20 7 20 20 0 13 -7
20 -20 20 -15 0 -20 7 -20 24 0 35 -61 82 -119 91 -25 4 -40 10 -33 12 6 3 12
18 12 35 0 25 3 29 20 25 11 -3 20 -2 20 3 0 4 16 11 36 15 55 10 60 19 53 94
-9 90 -17 110 -48 117 -44 11 -51 23 -51 89 0 59 -2 63 -27 73 -16 6 -39 12
-53 14 -23 3 -25 7 -30 73 -5 67 -6 71 -37 85 -38 18 -52 47 -54 115 -2 57
-21 82 -65 87 -28 3 -29 5 -34 66 -4 52 -9 66 -30 82 -32 25 -80 34 -141 27
-86 -10 -90 -16 -87 -110 l3 -82 47 -25 48 -25 0 -55 c0 -65 4 -72 50 -97 33
-18 35 -23 38 -74 3 -73 16 -95 59 -102 55 -9 63 -21 63 -97 0 -74 19 -104 60
-98 19 3 23 -2 26 -32 1 -19 -1 -51 -7 -71 -11 -45 -2 -99 18 -99 8 0 11 5 8
10 -3 6 -1 10 4 10 6 0 11 -11 11 -24 0 -21 -5 -25 -30 -24 -37 1 -37 1 -41
63 -3 46 -6 51 -39 67 -23 10 -69 17 -133 20 -95 3 -98 2 -104 -19 -8 -35 -18
-27 -20 15 -6 115 -27 163 -79 176 -20 5 -24 13 -25 44 -2 102 -11 119 -69
126 -19 2 -38 4 -41 5 -4 0 -9 32 -13 70 -7 73 -15 85 -59 96 -26 7 -27 10
-27 65 0 62 -25 110 -58 110 -39 1 -52 25 -52 93 l0 65 -42 16 c-174 62 -200
66 -229 40 -17 -15 -17 -17 2 -50 11 -21 19 -54 19 -84 0 -67 17 -99 62 -117
l37 -15 3 -71 3 -72 35 -11 c34 -11 35 -13 38 -69 4 -71 19 -94 74 -115 42
-16 43 -17 40 -60 -2 -33 3 -51 24 -81 15 -22 35 -39 44 -39 22 0 30 -20 30
-71 0 -28 -4 -39 -15 -39 -8 0 -15 5 -15 10 0 6 -33 10 -77 11 -113 1 -129 8
-125 47 3 24 -1 32 -12 32 -20 0 -20 -1 0 45 20 49 11 166 -14 188 -31 25
-103 47 -123 37 -10 -6 -33 -10 -52 -10 -51 0 -73 -29 -69 -95 l4 -52 -35 -7
c-56 -11 -75 -40 -80 -128 -5 -80 -10 -98 -30 -98 -7 0 -6 4 3 11 11 8 8 9
-15 5 -16 -3 -37 -1 -45 5 -12 9 -11 10 8 6 15 -4 22 0 22 10 0 9 -6 13 -15 9
-18 -6 -19 -1 -5 25 9 16 7 19 -12 19 -29 0 -91 -22 -111 -38 -8 -7 -27 -11
-41 -8 -14 3 -26 0 -26 -5 0 -5 4 -9 8 -9 5 0 4 -25 -1 -55 l-11 -56 -50 3
c-44 3 -51 6 -54 26 -2 12 -8 22 -13 22 -5 0 -9 7 -9 15 0 8 5 15 10 15 6 0
10 -7 10 -15 0 -8 9 -15 20 -15 11 0 20 -7 20 -15 0 -8 9 -15 20 -15 11 0 20
7 20 15 0 8 -9 15 -20 15 -13 0 -20 7 -20 20 0 12 -7 20 -17 20 -14 0 -15 2
-4 13 11 10 14 10 18 0 8 -22 43 -15 43 7 0 11 -6 20 -14 20 -10 0 -15 15 -18
50 -4 59 -1 70 18 70 20 0 19 60 -1 61 -8 1 -18 3 -22 4 -5 1 -23 6 -41 10
-26 6 -37 17 -52 51 -11 23 -20 54 -20 67 0 18 -9 28 -39 42 -38 17 -39 19
-46 80 -3 35 -13 69 -21 76 -7 6 -11 15 -8 20 3 5 -7 9 -22 9 -36 0 -53 26
-54 78 0 47 -32 88 -73 94 -20 3 -22 10 -25 69 -2 53 -7 70 -25 86 -28 25 -93
41 -158 39 -62 -2 -79 -20 -79 -85 0 -25 -4 -62 -9 -82 -8 -34 -6 -37 23 -52
17 -9 43 -21 59 -27 27 -9 27 -10 21 -77 -6 -68 -6 -68 24 -85 17 -10 40 -18
51 -18 19 0 21 -6 21 -70 l0 -70 52 -23 52 -23 -3 -55 c-3 -68 23 -109 71
-109 l30 0 -6 -52 c-14 -132 -18 -146 -42 -157 -13 -6 -24 -17 -24 -26 0 -11
-12 -15 -49 -15 -27 0 -61 -4 -74 -9 -24 -9 -25 -8 -31 43 -4 28 -4 60 0 71
12 31 42 55 69 55 35 0 34 40 -2 88 -37 49 -47 55 -55 32 -5 -12 -13 -17 -23
-14 -8 3 -13 9 -11 13 2 3 -10 5 -27 5 -18 -1 -41 3 -51 8 -28 15 -65 60 -66
81 0 15 -11 22 -32 18 -8 -1 -16 27 -20 74 -2 23 -9 32 -33 38 -57 17 -60 21
-69 100 l-8 76 -37 3 -36 3 -3 55 c-1 30 -4 65 -7 77 -7 31 -44 63 -73 63 -24
0 -24 1 -20 75 2 41 0 75 -5 75 -5 0 -16 7 -24 16 -21 20 -173 16 -218 -6 -27
-14 -30 -20 -32 -75 -2 -33 0 -79 3 -102 5 -40 8 -43 35 -43 16 0 29 -4 29
-10 0 -5 7 -7 15 -4 12 5 15 -3 16 -37 1 -24 2 -48 4 -54 1 -5 3 -16 3 -22 3
-17 62 -73 78 -73 11 0 29 -34 27 -50 -11 -80 -11 -117 0 -119 6 -1 26 -3 42
-5 24 -2 29 -7 27 -24 -2 -15 2 -22 13 -22 13 0 16 -9 14 -47 -2 -31 1 -48 8
-48 6 0 15 -4 20 -9 5 -5 -4 -6 -21 -2 -17 4 -37 16 -47 27 -9 10 -23 19 -31
19 -20 0 -37 -40 -31 -72 4 -21 12 -27 39 -30 19 -2 34 0 34 5 0 16 83 3 94
-16 8 -12 8 -20 0 -25 -6 -4 -13 -15 -17 -24 -3 -10 -14 -18 -22 -18 -14 0
-14 4 3 28 17 23 18 29 6 40 -22 20 -57 11 -65 -18 -4 -14 -7 -19 -8 -12 -2
22 -21 13 -22 -10 -1 -16 -3 -18 -6 -7 -4 18 -72 32 -87 18 -12 -10 -36 0 -36
16 0 18 -73 42 -78 26 -9 -26 -82 -9 -82 19 0 10 -6 21 -13 23 -9 4 -8 8 3 16
21 15 30 14 30 -3 0 -29 22 -27 50 4 29 32 50 33 50 2 0 -14 9 -18 39 -19 l39
-2 1 115 c1 71 -2 114 -8 114 -6 0 -8 -7 -5 -15 4 -9 0 -15 -10 -15 -9 0 -16
5 -16 10 0 6 -11 10 -25 10 -14 0 -25 -4 -25 -10 0 -5 -7 -10 -15 -10 -8 0
-15 9 -15 20 0 13 -7 20 -20 20 -13 0 -20 7 -20 19 0 11 -9 23 -20 26 -11 3
-20 12 -20 20 0 15 -22 25 -56 25 -22 0 -24 4 -24 50 0 43 -3 50 -20 50 -15 0
-20 7 -20 25 0 26 25 35 33 13 2 -7 4 16 3 52 -1 55 -4 65 -19 64 -17 -2 -21
7 -30 66 -3 14 -3 -33 0 -105 3 -94 2 -126 -6 -115 -14 20 -15 474 -1 465 6
-3 10 -47 10 -98 l0 -91 25 34 c30 41 31 47 5 55 -15 5 -20 15 -20 41 l0 34
104 0 c100 0 104 1 120 25 13 20 15 36 10 73 -5 26 -7 51 -6 55 5 17 -30 68
-52 77 -13 4 -60 12 -104 15 l-82 8 1 41 c1 23 4 31 6 19 4 -19 11 -23 44 -23
37 0 39 1 28 21 -8 15 -8 19 0 15 16 -10 14 1 -5 34 -21 34 -13 60 18 61 22 1
22 1 -2 9 -19 6 -9 8 37 9 l61 1 -5 -32 c-2 -18 -10 -38 -18 -44 -10 -8 1 -17
51 -38 l64 -28 0 -59 c0 -74 8 -79 139 -79 119 0 124 4 119 107 l-3 66 -42 20
c-34 17 -42 26 -45 54 l-4 33 178 0 178 0 0 -48 c0 -57 19 -87 58 -95 28 -6
30 -9 34 -68 6 -80 26 -98 109 -100 32 -1 76 -2 97 -3 l37 -1 3 87 c3 93 2 94
-55 128 -29 17 -33 24 -31 60 l1 40 81 0 c56 0 77 -3 69 -11 -19 -19 2 -91 36
-121 28 -25 39 -28 104 -28 50 0 80 5 95 16 21 14 23 21 17 69 l-7 53 38 11
c48 13 446 15 460 2 5 -5 25 -11 44 -13 l35 -3 -3 -61 c-4 -65 0 -71 61 -104
24 -13 33 -25 35 -49 4 -38 -9 -57 -57 -79 -35 -17 -36 -19 -45 -91 -9 -71 -8
-75 14 -93 18 -14 40 -18 109 -18 116 0 131 10 131 89 0 59 8 71 46 71 8 0 22
8 32 18 14 14 16 31 14 89 l-4 71 -38 16 c-41 16 -54 45 -49 109 2 18 0 38 -5
45 -5 9 24 12 133 12 78 0 141 -4 141 -9 0 -5 17 -11 38 -15 57 -9 76 -35 68
-94 -7 -54 2 -71 48 -95 28 -14 29 -17 27 -73 -2 -52 1 -62 23 -83 24 -22 31
-24 101 -18 74 7 113 19 127 41 10 14 -2 137 -15 154 -5 6 -17 12 -27 12 -30
0 -42 26 -43 95 -2 59 -4 66 -27 74 -17 7 26 10 138 10 124 1 162 -2 162 -12
0 -6 15 -18 33 -25 17 -8 42 -18 54 -22 21 -9 22 -14 17 -68 -6 -52 -4 -62 15
-81 11 -11 28 -21 36 -21 20 0 35 -40 35 -91 0 -61 25 -79 113 -80 130 -2 137
3 137 93 0 63 -16 89 -65 108 -23 9 -25 15 -25 75 0 72 -20 105 -62 105 -13 0
-30 5 -38 10 -10 6 48 10 173 10 116 0 187 -4 187 -10 0 -5 -11 -12 -24 -16
-49 -12 -62 -53 -57 -180 1 -30 41 -44 126 -44 68 0 76 2 91 25 10 15 15 42
14 72 -4 70 -2 73 25 73 29 0 75 40 75 65 0 13 26 15 194 15 l195 0 3 -37 c3
-32 8 -39 33 -47 76 -22 75 -21 75 -83 0 -66 2 -69 53 -108 38 -28 38 -29 32
-80 -9 -71 2 -80 110 -89 117 -10 135 1 135 82 0 83 -8 100 -51 123 -39 19
-39 20 -39 79 0 56 -2 60 -30 75 -16 8 -38 15 -48 15 -25 0 -42 20 -38 45 3
19 13 20 199 23 184 2 197 1 197 -16 0 -28 -29 -62 -54 -62 -37 0 -50 -25 -48
-91 3 -102 21 -117 138 -114 92 2 104 13 104 93 0 53 2 60 25 70 14 7 32 12
39 12 18 0 26 22 26 71 l0 39 211 0 210 0 -3 -22 c-2 -13 -7 -26 -12 -29 -4
-4 8 -8 28 -11 20 -2 36 -1 36 3 0 4 15 7 33 8 67 1 147 21 154 37 4 11 48 14
224 14 l219 0 0 -36 c0 -50 16 -73 65 -95 34 -15 42 -23 38 -39 -4 -14 0 -20
11 -20 9 0 16 -8 16 -19 0 -11 5 -21 12 -23 7 -3 4 -7 -7 -12 -11 -4 -16 -4
-13 0 4 3 2 12 -5 18 -16 16 -47 27 -47 17 0 -5 10 -11 23 -15 18 -5 20 -8 7
-16 -13 -9 -13 -11 0 -20 8 -5 25 -7 37 -3 17 4 23 1 23 -10 0 -9 15 -31 34
-49 39 -39 59 -85 31 -75 -9 4 -18 7 -21 7 -2 0 -1 7 2 15 4 9 -1 17 -12 21
-36 11 -99 36 -119 47 -25 13 -95 26 -95 18 0 -4 6 -13 12 -19 7 -7 -3 -5 -22
4 -19 10 -37 20 -40 24 -3 4 -17 10 -32 14 -21 5 -28 3 -28 -9 0 -11 -6 -10
-26 8 -14 12 -27 20 -29 17 -2 -3 -11 4 -19 15 -13 18 -12 21 6 31 14 7 17 14
9 18 -15 10 -14 29 2 23 7 -3 24 1 38 8 27 15 13 26 -32 22 -21 -2 -25 -7 -24
-29 2 -37 -22 -44 -58 -18 -38 29 -45 19 -10 -15 28 -28 13 -25 -20 4 -14 12
-20 12 -26 3 -6 -9 -15 -5 -36 15 -23 23 -26 24 -16 6 6 -12 15 -25 21 -28 5
-3 7 -13 4 -23 -5 -13 -4 -14 4 -3 8 11 12 10 21 -8 19 -34 -10 -26 -49 14
-21 22 -36 31 -41 24 -4 -8 -13 -7 -30 2 -13 7 -28 12 -34 10 -27 -9 -102 -8
-112 1 -10 8 -13 6 -13 -6 0 -9 -4 -16 -9 -16 -5 0 -18 -3 -28 -7 -15 -6 -16
-5 -5 9 7 9 9 18 5 21 -13 8 -53 -11 -59 -28 -3 -8 -10 -13 -14 -10 -5 3 -11
-4 -15 -15 -11 -35 -33 -24 -33 18 0 55 -1 62 -11 62 -5 0 -12 -17 -15 -37
-11 -64 -27 -95 -41 -83 -11 9 -12 6 -8 -11 5 -18 3 -21 -10 -16 -10 4 -17 2
-17 -3 0 -5 -10 -19 -22 -31 -23 -21 -23 -21 -2 -15 12 4 29 4 38 0 28 -11
-16 -35 -58 -32 -43 3 -57 -9 -33 -26 28 -21 20 -26 -18 -10 -19 8 -35 11 -35
6 0 -4 -15 -9 -32 -10 -31 -2 -32 -1 -14 13 15 11 16 15 5 16 -8 0 -22 2 -31
4 -21 4 -24 -25 -5 -44 10 -10 8 -11 -7 -5 -16 6 -18 4 -13 -9 3 -9 2 -17 -2
-17 -13 0 -21 27 -15 45 4 8 1 15 -5 15 -6 0 -11 -8 -12 -17 -1 -12 -4 -9 -8
7 -7 22 -9 19 -19 -25 -9 -42 -8 -54 6 -75 9 -14 17 -27 17 -30 1 -17 37 -79
49 -83 12 -5 12 -2 1 20 -8 15 -12 30 -9 35 3 4 0 8 -7 8 -22 0 -1 11 26 15
25 2 27 0 21 -27 -6 -28 -5 -28 16 -13 28 19 58 19 58 0 0 -17 30 -35 57 -35
24 0 101 -36 128 -60 13 -12 42 -19 82 -22 40 -3 69 -10 81 -21 15 -14 35 -17
88 -16 38 1 72 6 75 12 4 5 18 7 32 3 17 -4 25 -13 25 -28 -1 -24 11 -171 17
-223 9 -75 -2 -70 146 -67 108 3 138 0 154 -12 19 -14 18 -15 -11 -7 -17 5
-87 6 -155 2 l-124 -6 -3 -63 c-2 -50 1 -70 18 -96 11 -18 20 -42 19 -52 0
-18 -1 -18 -8 0 -5 14 -10 16 -15 8 -8 -13 1 -52 13 -52 4 0 8 -10 8 -22 2
-16 0 -19 -6 -9 -6 9 -10 10 -16 2 -4 -7 -1 -18 5 -26 7 -8 10 -21 7 -29 -6
-16 16 -40 26 -29 13 13 7 -14 -8 -33 -9 -12 -12 -31 -9 -51 4 -23 1 -37 -10
-49 -10 -9 -14 -24 -11 -34 3 -10 1 -21 -5 -25 -8 -5 -7 -12 2 -23 8 -10 9
-13 1 -9 -6 4 -14 3 -18 -3 -3 -5 1 -10 9 -10 14 0 14 -3 4 -20 -7 -11 -19
-18 -26 -15 -7 3 -10 0 -7 -5 3 -6 2 -10 -4 -10 -5 0 -15 8 -21 18 -8 12 -13
13 -16 5 -3 -7 -10 -13 -15 -13 -13 0 -72 -61 -65 -67 3 -3 21 11 41 31 19 20
40 34 46 30 6 -3 -5 -20 -25 -40 -41 -40 -24 -45 39 -11 25 14 46 36 58 60 10
21 22 35 26 32 11 -6 53 44 46 55 -3 5 -1 11 5 15 5 3 10 11 10 17 0 5 -13 -4
-29 -21 -34 -36 -58 -42 -41 -11 6 11 14 20 18 20 4 0 8 14 8 32 1 18 6 34 13
36 13 4 15 29 2 34 -5 2 -1 21 9 43 11 22 19 54 20 71 0 16 5 35 10 40 6 6 15
38 21 72 8 46 16 63 30 67 10 4 19 15 19 25 0 23 63 63 88 56 10 -4 33 1 50 9
42 22 140 17 153 -7 11 -21 12 -131 1 -143 -5 -6 -17 -32 -27 -60 -12 -32 -37
-67 -69 -99 l-51 -50 -4 -120 c-3 -106 -1 -121 15 -133 22 -16 53 -18 37 -2
-13 13 -5 49 11 49 18 0 56 43 56 63 0 9 20 30 45 45 25 16 42 31 39 35 -4 4
-2 12 3 19 6 7 18 38 29 68 22 66 34 86 44 70 12 -19 40 18 40 52 0 22 -4 29
-14 25 -10 -4 -13 -1 -9 9 3 7 9 14 14 14 5 0 15 11 21 25 6 14 19 25 30 25
10 0 18 7 18 16 0 11 6 15 20 11 11 -3 23 0 26 5 13 20 5 130 -9 147 -13 14
-13 25 0 86 26 122 5 241 -51 293 -24 22 -25 25 -9 48 15 23 16 23 28 7 7 -10
15 -27 19 -38 5 -18 13 -20 73 -17 92 4 105 16 101 100 -3 64 -3 64 -43 86
-52 28 -55 32 -55 94 0 44 -4 57 -26 77 -14 13 -35 27 -45 30 -15 5 -19 16
-19 58 0 63 -19 93 -63 105 -22 6 -39 20 -54 48 -44 77 -49 75 180 72 l202 -3
-3 -71 c-4 -79 -9 -73 83 -100 29 -9 30 -12 33 -77 3 -61 6 -69 30 -84 47 -30
51 -39 54 -109 l3 -69 45 -16 45 -17 3 -63 c4 -88 18 -99 126 -99 76 0 84 2
95 23 7 13 11 48 9 82 -3 60 -3 60 -46 79 -46 21 -54 37 -56 114 -1 39 -5 49
-26 59 -42 21 -60 53 -60 112 0 60 -16 80 -61 81 -37 0 -45 15 -52 94 l-6 68
82 -6 c115 -9 220 -10 300 -1 47 5 67 4 67 -4 0 -6 -4 -11 -10 -11 -5 0 -10
-15 -10 -32 0 -76 -11 -108 -39 -114 -59 -13 -59 -13 -67 -70 -7 -63 6 -107
39 -121 12 -5 55 -8 95 -5 80 5 92 14 94 75 2 67 6 76 46 87 50 13 64 42 53
110 -5 28 -13 56 -18 61 -6 6 -32 14 -59 18 -40 7 -26 9 74 10 98 1 128 -2
147 -15 14 -9 55 -19 91 -22 56 -4 69 -2 94 17 28 20 40 21 228 21 l198 0 22
-30 c22 -29 26 -30 97 -30 62 0 79 4 95 20 11 11 20 25 20 30 0 6 80 10 220
10 l219 0 9 -32 c10 -38 29 -45 129 -47 66 -1 83 11 83 58 0 21 2 21 443 21
l444 0 -4 -27 c-6 -36 12 -83 31 -83 8 0 27 -5 41 -12 23 -10 25 -17 25 -68 0
-42 5 -64 19 -81 18 -23 26 -24 150 -27 l131 -2 0 89 c0 102 1 101 -90 101
-34 0 -62 5 -68 13 -9 11 -16 53 -13 84 1 10 790 13 3894 16 2140 1 -249 3
-5310 5 l-9203 2 0 -3000z m80 2980 c-20 -13 -40 -13 -40 0 0 6 12 10 28 10
21 0 24 -2 12 -10z m-63 -157 c-3 -10 -5 -4 -5 12 0 17 2 24 5 18 2 -7 2 -21
0 -30z m5873 -53 c16 -16 17 -20 5 -20 -8 0 -15 5 -15 10 0 6 -3 9 -7 9 -17
-3 -24 2 -18 11 9 14 12 13 35 -10z m40 10 c0 -5 -5 -10 -11 -10 -5 0 -7 5 -4
10 3 6 8 10 11 10 2 0 4 -4 4 -10z m-100 -10 c0 -5 -7 -7 -16 -3 -13 5 -15 2
-9 -16 5 -16 1 -23 -17 -30 -31 -12 -33 -8 -12 28 17 29 54 43 54 21z m350
-20 c0 -5 -2 -10 -4 -10 -3 0 -8 5 -11 10 -3 6 -1 10 4 10 6 0 11 -4 11 -10z
m-795 -200 c3 -5 2 -10 -4 -10 -5 0 -13 5 -16 10 -3 6 -2 10 4 10 5 0 13 -4
16 -10z m1285 -5 c0 -8 -2 -15 -4 -15 -2 0 -6 7 -10 15 -3 8 -1 15 4 15 6 0
10 -7 10 -15z m-1255 -5 c3 -5 1 -10 -4 -10 -6 0 -11 5 -11 10 0 6 2 10 4 10
3 0 8 -4 11 -10z m-135 -20 c0 -5 -8 -10 -17 -10 -15 0 -16 2 -3 10 19 12 20
12 20 0z m1430 -31 c10 -24 10 -35 0 -55 -20 -37 -47 -31 -52 11 -3 26 -1 34
9 31 15 -6 17 16 3 30 -6 6 -3 10 9 11 13 1 23 -9 31 -28z m-1137 -516 c-7 -2
-21 -2 -30 0 -10 3 -4 5 12 5 17 0 24 -2 18 -5z m-33 -43 c0 -5 -10 -10 -22
-9 -22 0 -22 1 -3 9 11 5 21 9 23 9 1 1 2 -3 2 -9z m-5330 -135 c0 -14 -4 -25
-10 -25 -5 0 -10 11 -10 25 0 14 5 25 10 25 6 0 10 -11 10 -25z m60 -27 c0
-21 -3 -28 -8 -20 -5 7 -16 10 -28 6 -19 -7 -19 -6 0 8 10 8 16 20 12 26 -4 7
-1 12 8 12 11 0 16 -10 16 -32z m5160 12 c0 -5 -7 -10 -15 -10 -8 0 -15 5 -15
10 0 6 7 10 15 10 8 0 15 -4 15 -10z m-4998 -72 c-7 -7 -12 -8 -12 -2 0 14 12
26 19 19 2 -3 -1 -11 -7 -17z m-235 -20 c-3 -8 -6 -5 -6 6 -1 11 2 17 5 13 3
-3 4 -12 1 -19z m5889 -49 c-15 -34 -15 -34 -9 -4 7 35 13 48 20 42 2 -3 -3
-20 -11 -38z m-5487 -39 c-2 -21 0 -42 4 -46 14 -14 6 -24 -19 -24 -17 0 -28
-6 -31 -20 -7 -28 -21 -25 -18 4 4 31 14 48 25 41 11 -7 34 51 26 70 -3 8 -1
15 5 15 6 0 9 -17 8 -40z m1548 4 c-3 -3 -12 -4 -19 -1 -8 3 -5 6 6 6 11 1 17
-2 13 -5z m3224 -77 c-14 -14 -29 0 -52 46 l-21 42 41 -40 c25 -23 37 -43 32
-48z m-4361 23 c0 -5 -8 -10 -17 -10 -15 0 -16 2 -3 10 19 12 20 12 20 0z
m1170 -5 c0 -8 -4 -15 -10 -15 -5 0 -10 7 -10 15 0 8 5 15 10 15 6 0 10 -7 10
-15z m-1490 -54 c0 -6 -4 -13 -10 -16 -5 -3 -10 1 -10 9 0 9 5 16 10 16 6 0
10 -4 10 -9z m1737 -17 c-3 -3 -12 -4 -19 -1 -8 3 -5 6 6 6 11 1 17 -2 13 -5z
m30 -31 c4 -12 -35 -29 -44 -20 -7 8 20 37 31 33 6 -1 11 -7 13 -13z m3249
-48 c-7 -29 -26 -34 -26 -7 0 18 20 45 28 37 2 -2 2 -16 -2 -30z m-3186 -20
c0 -21 -5 -25 -30 -25 l-29 0 22 24 c29 31 37 31 37 1z m40 -10 c0 -8 -4 -15
-9 -15 -5 0 -11 7 -15 15 -3 9 0 15 9 15 8 0 15 -7 15 -15z m3070 -25 c0 -5
-4 -10 -10 -10 -5 0 -10 5 -10 10 0 6 5 10 10 10 6 0 10 -4 10 -10z m-2495
-10 c3 -5 1 -10 -4 -10 -6 0 -11 5 -11 10 0 6 2 10 4 10 3 0 8 -4 11 -10z
m2456 -68 c-6 -2 -8 -14 -5 -26 3 -14 -1 -28 -11 -36 -16 -13 -16 -9 -10 45 8
65 28 93 33 48 2 -15 -1 -29 -7 -31z m-694 6 c-3 -7 -5 -2 -5 12 0 14 2 19 5
13 2 -7 2 -19 0 -25z m733 -79 c0 -6 -4 -8 -9 -5 -5 4 -14 -6 -20 -21 l-10
-28 2 30 c2 31 15 48 29 39 4 -3 8 -10 8 -15z m-163 -21 c-3 -8 -6 -5 -6 6 -1
11 2 17 5 13 3 -3 4 -12 1 -19z m43 2 c0 -5 -5 -10 -11 -10 -5 0 -7 5 -4 10 3
6 8 10 11 10 2 0 4 -4 4 -10z m-242 -50 c6 0 13 6 16 13 3 8 11 5 24 -10 11
-12 22 -20 25 -17 3 3 8 1 11 -4 3 -5 -20 -17 -52 -27 -79 -24 -99 -28 -86
-18 6 4 10 24 9 43 -2 53 4 64 25 40 9 -11 22 -20 28 -20z m-1308 -2744 c0
-51 -6 -43 -14 19 -4 34 -3 45 4 35 5 -8 10 -33 10 -54z m106 -472 c-9 -9 -20
-14 -23 -10 -4 3 2 13 13 20 25 18 31 12 10 -10z m53 -38 c-12 -10 -59 -15
-59 -6 0 5 14 10 32 10 17 0 29 -2 27 -4z m-19 -40 c0 -8 -4 -18 -10 -21 -5
-3 -10 3 -10 14 0 12 5 21 10 21 6 0 10 -6 10 -14z m41 -13 c13 -16 12 -17 -3
-4 -10 7 -18 15 -18 17 0 8 8 3 21 -13z m2616 -530 c-3 -10 -5 -2 -5 17 0 19
2 27 5 18 2 -10 2 -26 0 -35z m-2587 -23 c0 -5 -4 -10 -10 -10 -5 0 -10 5 -10
10 0 6 5 10 10 10 6 0 10 -4 10 -10z m253 -24 c17 -4 25 -11 21 -18 -4 -7 -3
-8 4 -4 7 4 22 -10 37 -33 28 -45 31 -56 13 -45 -8 5 -7 0 2 -11 14 -17 13
-18 -2 -12 -22 8 -23 -5 -3 -43 14 -27 14 -30 -1 -30 -10 0 -14 -5 -10 -15 4
-12 -4 -15 -43 -15 -27 0 -63 3 -80 6 -26 5 -29 9 -20 21 9 10 9 17 1 25 -15
15 -15 129 -1 162 11 24 39 39 49 25 3 -3 18 -9 33 -13z m148 2 c14 -17 19
-19 20 -8 1 8 5 -3 9 -25 5 -24 4 -45 -2 -52 -7 -9 -7 -13 1 -14 26 -3 30 -4
37 -12 4 -4 -2 -7 -14 -7 -18 0 -20 -4 -13 -22 5 -13 9 -26 10 -30 0 -5 4 -7
9 -6 4 2 6 6 5 9 -1 4 8 6 20 5 14 0 23 -7 23 -17 0 -11 -6 -15 -15 -11 -11 4
-13 0 -9 -16 11 -39 -20 -24 -43 21 -12 23 -46 68 -75 100 -50 54 -70 88 -42
71 7 -4 8 -3 4 4 -4 6 -13 9 -20 6 -8 -3 -17 0 -22 7 -5 9 -2 10 9 6 9 -3 19
-2 22 3 12 19 66 11 86 -12z m179 -187 c0 -5 9 -13 20 -16 33 -10 12 -25 -36
-25 -49 0 -56 11 -22 34 26 18 38 20 38 7z"/>
<path d="M8305 5935 c-21 -107 -9 -155 40 -155 13 0 36 -5 50 -10 26 -10 27
-13 23 -75 -3 -67 -3 -68 50 -115 18 -16 22 -31 22 -78 0 -66 15 -88 65 -94
29 -3 30 -4 33 -66 3 -74 -7 -92 -54 -92 -44 0 -64 -30 -64 -95 0 -62 -6 -71
-55 -87 l-40 -13 -3 -71 -3 -71 38 -17 c67 -30 68 -31 71 -82 5 -69 -12 -94
-62 -94 -59 -1 -76 -18 -76 -74 0 -55 -14 -86 -38 -86 -10 0 -28 -7 -40 -16
-20 -14 -22 -24 -22 -100 0 -46 3 -83 8 -82 4 1 21 -4 37 -11 31 -13 168 -12
181 2 4 4 12 39 18 79 11 71 12 73 54 96 41 23 42 24 42 77 0 63 16 85 63 85
62 1 71 17 73 140 l2 110 -27 0 c-15 0 -35 -9 -45 -21 -23 -27 -36 -15 -42 41
-6 50 14 80 52 75 42 -4 58 31 45 102 -17 87 -14 88 192 83 82 -2 122 1 132
10 23 19 20 121 -3 151 -17 20 -31 23 -153 31 -73 5 -139 14 -145 19 -6 5 -15
39 -19 76 -6 59 -11 70 -41 97 -30 26 -34 36 -34 77 0 66 -16 99 -49 99 -15 0
-37 7 -49 16 -19 13 -22 24 -22 75 0 59 0 60 -36 75 -23 10 -60 14 -100 12
-56 -2 -65 -5 -69 -23z"/>
<path d="M8958 5929 c-14 -8 -18 -24 -18 -78 0 -77 6 -86 65 -96 59 -11 65
-19 65 -94 l0 -66 45 -19 c43 -17 45 -20 40 -52 -3 -19 -7 -49 -10 -67 -7 -44
19 -68 79 -74 112 -13 145 15 137 117 -6 60 -8 66 -36 79 -40 19 -45 27 -45
89 0 61 -23 92 -69 92 -38 0 -44 11 -52 94 -4 41 -12 72 -20 77 -19 12 -160
11 -181 -2z"/>
<path d="M9626 5901 c-18 -20 -22 -111 -6 -142 7 -12 21 -19 38 -19 15 0 38
-7 51 -16 21 -15 23 -22 17 -74 -6 -55 -5 -59 20 -79 21 -17 41 -21 98 -21 43
0 77 5 84 12 7 7 12 39 12 74 0 69 -12 90 -58 100 -51 10 -57 18 -60 83 -4 75
-17 86 -113 94 -56 5 -69 3 -83 -12z"/>
<path d="M10066 5869 c-23 -34 -21 -114 4 -139 17 -17 33 -20 100 -20 69 0 81
3 90 20 11 20 4 118 -11 141 -5 9 -35 15 -87 17 -74 4 -81 2 -96 -19z"/>
<path d="M1536 5848 c-28 -39 -2 -188 33 -188 9 -1 43 -2 76 -4 33 -3 77 0 98
5 l37 10 0 78 c0 68 -3 80 -23 99 -20 19 -35 22 -115 22 -82 0 -92 -2 -106
-22z"/>
<path d="M6388 5863 c7 -3 16 -2 19 1 4 3 -2 6 -13 5 -11 0 -14 -3 -6 -6z"/>
<path d="M6383 5828 c20 -19 52 -25 42 -8 -3 6 -14 10 -24 10 -9 0 -21 3 -27
8 -5 4 -1 -1 9 -10z"/>
<path d="M5870 5820 c0 -5 5 -10 11 -10 5 0 7 5 4 10 -3 6 -8 10 -11 10 -2 0
-4 -4 -4 -10z"/>
<path d="M6140 5821 c0 -9 30 -24 36 -18 2 1 -6 8 -16 15 -11 7 -20 8 -20 3z"/>
<path d="M6240 5805 c-7 -8 -9 -22 -5 -32 5 -12 9 -14 12 -5 3 8 10 5 22 -9
15 -19 29 -22 109 -24 73 -2 92 0 92 11 0 10 -12 14 -39 14 -22 0 -43 5 -46
10 -3 6 -11 10 -17 10 -6 0 -3 -9 8 -21 19 -21 19 -21 -8 -8 -15 6 -25 16 -22
20 3 5 -2 9 -10 9 -9 0 -16 4 -16 10 0 5 -6 7 -14 4 -7 -3 -16 2 -19 10 -8 20
-31 20 -47 1z"/>
<path d="M4035 5762 c-30 -15 -37 -39 -33 -112 3 -48 7 -57 33 -75 26 -17 43
-20 117 -17 99 4 95 -1 100 116 2 54 -1 62 -24 79 -32 24 -155 30 -193 9z"/>
<path d="M632 5734 c-12 -8 -19 -33 -22 -76 -5 -61 -6 -63 -35 -66 -51 -5 -64
-35 -56 -127 6 -78 7 -80 33 -81 15 -1 33 -6 40 -11 25 -20 136 -1 167 28 16
15 21 32 21 69 0 49 1 50 45 70 l45 20 0 65 c0 57 -3 67 -27 90 -15 14 -35 26
-43 26 -80 6 -154 3 -168 -7z"/>
<path d="M5335 5721 c-22 -4 -46 -10 -53 -15 -19 -12 -3 -28 21 -21 12 4 17 3
11 -2 -6 -4 -14 -16 -17 -27 -5 -13 3 -9 29 14 20 17 42 29 50 26 9 -3 14 2
14 14 0 11 -3 19 -7 19 -5 -1 -26 -4 -48 -8z"/>
<path d="M1248 5697 c-21 -18 -27 -32 -30 -72 -3 -52 -1 -49 -78 -85 -12 -6
-15 -24 -13 -78 2 -105 6 -108 110 -115 126 -7 148 8 144 100 -2 52 -2 53 26
53 52 0 61 18 67 122 l3 58 -42 20 c-59 28 -150 27 -187 -3z"/>
<path d="M5420 5680 c0 -12 56 -12 85 -1 14 6 4 9 -32 9 -29 1 -53 -3 -53 -8z"/>
<path d="M2477 5655 c-9 -8 -18 -41 -22 -72 -9 -81 -10 -83 -48 -83 -50 0 -57
-14 -57 -107 0 -82 0 -83 28 -89 15 -3 39 -10 54 -16 35 -13 118 -8 146 10 20
13 22 21 18 73 -5 65 0 73 57 83 49 9 68 38 63 100 -6 79 -41 105 -150 112
-58 3 -78 1 -89 -11z"/>
<path d="M5436 5648 c3 -4 14 -8 25 -8 11 0 18 4 14 9 -3 6 -14 9 -25 8 -10
-1 -16 -5 -14 -9z"/>
<path d="M3096 5621 c-11 -12 -20 -42 -23 -78 -4 -55 -24 -90 -44 -78 -4 3
-19 0 -32 -6 -26 -12 -37 -43 -37 -106 0 -73 35 -98 130 -95 121 4 119 3 122
85 l3 72 38 6 c51 8 66 32 67 101 0 89 -11 104 -82 112 -98 10 -124 8 -142
-13z"/>
<path d="M5415 5620 c3 -5 11 -10 16 -10 6 0 7 5 4 10 -3 6 -11 10 -16 10 -6
0 -7 -4 -4 -10z"/>
<path d="M7853 5624 c-9 -4 -13 -31 -13 -84 0 -98 6 -104 116 -108 82 -4 82
-4 97 25 21 39 12 149 -12 158 -23 9 -173 16 -188 9z"/>
<path d="M3770 5607 c-62 -12 -70 -22 -70 -81 0 -60 -12 -76 -55 -76 -49 0
-65 -26 -65 -101 0 -35 6 -71 13 -80 27 -35 157 -51 207 -26 23 11 25 20 30
87 l5 75 43 0 c53 1 61 12 63 88 1 31 2 62 3 69 1 7 -14 22 -32 35 -36 23 -66
26 -142 10z"/>
<path d="M4336 5568 c-12 -16 -14 -35 -10 -68 7 -54 -1 -64 -66 -77 l-45 -9
-3 -69 c-3 -78 10 -121 41 -129 38 -10 145 -7 171 5 23 11 25 18 28 83 l3 71
38 3 c54 5 70 34 65 118 -5 86 -16 94 -124 94 -74 0 -84 -2 -98 -22z"/>
<path d="M5025 5570 c-64 -14 -74 -25 -77 -92 -3 -67 -3 -67 -80 -83 -26 -5
-27 -7 -30 -87 -4 -99 -3 -103 25 -115 35 -15 159 -15 187 0 23 12 25 18 25
87 l0 74 37 7 c60 10 78 32 78 99 0 43 -5 61 -18 74 -26 22 -110 43 -147 36z"/>
<path d="M10135 5543 c-38 -2 -75 -9 -82 -15 -8 -6 -13 -32 -13 -64 0 -79 -12
-104 -53 -104 -51 0 -65 -17 -67 -80 -2 -30 -2 -61 -1 -68 2 -18 47 -33 118
-38 53 -4 65 -2 83 16 16 16 19 28 14 55 -3 19 -3 51 0 70 7 33 9 35 48 35 56
0 67 18 68 107 0 61 -3 74 -19 83 -11 5 -21 9 -23 8 -2 -1 -34 -4 -73 -5z"/>
<path d="M1780 5534 c-44 -18 -51 -36 -49 -113 1 -45 7 -81 15 -88 18 -18 165
-17 210 2 l35 15 -3 71 c-3 64 -6 74 -30 92 -27 20 -146 34 -178 21z"/>
<path d="M10520 5523 c-25 -10 -30 -25 -30 -88 0 -63 11 -85 41 -85 34 0 59
-48 59 -111 0 -45 4 -60 18 -67 24 -13 128 -23 157 -16 24 6 25 9 25 90 0 49
-4 84 -10 84 -5 0 -12 0 -15 0 -3 0 -19 7 -35 15 -28 15 -30 19 -30 76 0 50
-4 64 -25 84 -20 21 -33 25 -82 24 -32 0 -65 -3 -73 -6z"/>
<path d="M8172 5420 c-6 -11 -12 -40 -12 -66 0 -63 -13 -84 -54 -84 -46 0 -60
-21 -66 -98 l-5 -65 -43 -15 c-48 -16 -62 -39 -62 -103 0 -38 -2 -41 -49 -60
l-48 -20 -9 -77 -9 -77 -53 -8 c-43 -7 -55 -13 -63 -34 -15 -41 -11 -118 9
-142 16 -20 25 -22 117 -19 l100 3 3 60 c4 100 5 102 62 107 28 3 56 10 62 16
7 7 11 38 10 72 l-2 60 48 22 c26 13 49 24 52 26 2 2 3 26 2 54 -2 57 16 88
52 88 40 0 50 16 54 87 4 77 16 93 69 93 42 0 53 21 53 99 0 52 -3 62 -26 80
-22 17 -41 21 -103 21 -65 0 -78 -3 -89 -20z"/>
<path d="M1449 5383 c-18 -4 -27 -30 -37 -107 -7 -47 -8 -50 -39 -51 -18 -1
-36 -4 -39 -8 -12 -11 -16 -181 -6 -208 10 -26 11 -26 111 -24 74 2 107 7 126
19 28 18 27 17 25 97 -1 55 0 57 25 57 51 0 65 26 65 123 l0 87 -31 11 c-31
11 -166 13 -200 4z"/>
<path d="M6972 5298 c-19 -19 -16 -153 4 -172 20 -20 186 -23 202 -3 9 10 16
88 13 135 -1 6 -10 21 -21 32 -17 17 -33 20 -103 20 -51 0 -88 -5 -95 -12z"/>
<path d="M3292 5284 c-19 -13 -22 -24 -22 -87 0 -84 16 -117 58 -117 46 0 54
-12 52 -76 -1 -32 -1 -65 -1 -72 1 -7 19 -19 41 -28 l40 -16 0 -59 c0 -51 4
-61 27 -84 15 -14 40 -25 54 -25 25 0 26 -3 32 -66 5 -73 12 -83 59 -98 32
-11 33 -13 38 -78 7 -92 16 -100 129 -105 119 -6 129 2 132 106 2 81 -7 96
-63 108 -23 4 -28 11 -29 37 -4 101 -15 126 -59 126 -37 0 -60 36 -60 97 0 55
-22 90 -60 95 -23 3 -26 9 -34 68 -11 74 -38 112 -76 108 -24 -3 -25 -1 -28
64 -3 61 -6 69 -33 92 -27 23 -40 26 -103 26 -49 0 -79 -5 -94 -16z"/>
<path d="M7617 5272 c-12 -13 -17 -36 -17 -73 0 -73 7 -95 36 -108 37 -16 140
-14 175 5 30 15 31 17 28 82 -4 98 -19 112 -124 112 -67 0 -85 -3 -98 -18z"/>
<path d="M3902 5258 c-7 -7 -12 -40 -12 -79 0 -71 -5 -79 -55 -79 -14 0 -29
-9 -35 -19 -11 -22 -13 -150 -2 -167 12 -19 73 -34 134 -34 83 0 102 17 106
95 4 64 18 85 58 85 12 0 27 6 33 13 12 15 19 162 9 173 -23 22 -216 32 -236
12z"/>
<path d="M5290 5214 c0 -5 -23 -10 -51 -11 -51 -2 -79 -15 -79 -39 0 -7 -7
-20 -16 -28 -8 -9 -12 -16 -7 -16 5 0 14 5 20 11 11 11 96 15 112 4 9 -5 33
76 25 84 -2 2 -4 0 -4 -5z"/>
<path d="M9376 5188 c-10 -14 -16 -44 -16 -84 0 -81 14 -94 112 -101 65 -5 75
-3 92 15 15 18 18 33 14 88 -6 88 -23 104 -119 104 -59 0 -70 -3 -83 -22z"/>
<path d="M10300 5173 c-45 -8 -60 -31 -60 -90 0 -73 -12 -93 -55 -93 -40 0
-50 -14 -57 -83 -9 -76 10 -91 114 -95 101 -5 107 0 109 87 2 66 5 70 59 86
34 10 35 12 38 70 2 32 1 69 -2 80 -9 37 -67 52 -146 38z"/>
<path d="M5310 5114 c0 -8 9 -33 19 -54 15 -32 16 -40 5 -40 -8 0 -13 5 -11
12 3 14 -35 26 -85 27 -21 1 -38 6 -38 11 0 6 -13 10 -29 10 -31 0 -48 -24
-32 -44 6 -7 4 -15 -3 -22 -15 -14 -46 5 -46 27 0 9 -6 7 -20 -7 -16 -15 -22
-37 -25 -95 -6 -84 6 -107 58 -111 15 -1 26 -7 24 -13 -3 -5 11 -11 30 -11 25
-1 31 2 24 9 -22 22 -10 28 18 8 16 -12 32 -21 35 -21 6 0 56 75 56 84 0 2 -9
2 -20 -1 -11 -3 -17 -9 -15 -14 3 -4 0 -17 -7 -28 -9 -15 -16 -17 -30 -10 -10
5 -18 16 -18 24 0 8 -9 15 -20 15 -11 0 -20 4 -20 9 0 6 32 13 71 17 62 6 72
10 80 30 11 29 23 32 16 3 -3 -13 -1 -19 6 -16 8 2 11 20 9 46 -3 34 0 46 16
57 19 13 19 14 -2 58 -22 46 -46 67 -46 40z m-150 -58 c0 -3 -4 -8 -10 -11 -5
-3 -10 -1 -10 4 0 6 5 11 10 11 6 0 10 -2 10 -4z m100 -27 c18 -10 4 -11 -39
-3 -17 4 -28 11 -25 16 6 9 36 3 64 -13z m-64 -36 c8 -3 14 -12 14 -21 0 -11
-5 -9 -20 8 -11 13 -19 32 -19 44 2 19 2 19 6 -2 3 -13 11 -26 19 -29z m109
29 c-5 -4 -10 -13 -10 -21 0 -8 -6 -16 -12 -18 -7 -3 -13 2 -13 9 0 17 20 38
35 38 6 0 7 -3 0 -8z"/>
<path d="M7349 5122 c-51 -4 -67 -26 -71 -96 -3 -62 -9 -70 -60 -80 -25 -6
-27 -10 -33 -73 -3 -38 -10 -75 -14 -83 -4 -8 -28 -18 -51 -22 -24 -4 -48 -12
-54 -18 -6 -6 -13 -36 -16 -67 -5 -56 -5 -57 -47 -70 -48 -16 -52 -23 -54
-116 -3 -89 6 -96 126 -97 112 0 125 10 125 99 0 61 7 71 50 71 29 0 40 23 41
89 1 34 6 64 12 68 5 3 28 8 51 11 59 6 66 15 66 91 0 74 10 91 52 91 37 0 48
24 48 104 0 61 -2 66 -27 79 -32 16 -91 24 -144 19z"/>
<path d="M5215 5111 c3 -6 12 -8 20 -4 10 3 15 -2 15 -16 0 -12 5 -21 10 -21
6 0 10 10 10 23 0 18 -6 23 -31 25 -18 1 -28 -2 -24 -7z"/>
<path d="M160 5067 c0 -20 5 -27 20 -27 13 0 20 7 20 20 0 11 -5 20 -11 20 -5
0 -7 -6 -4 -12 4 -7 -1 -4 -9 6 -15 19 -16 19 -16 -7z"/>
<path d="M5100 5070 c-9 -6 -10 -10 -3 -10 6 0 15 5 18 10 8 12 4 12 -15 0z"/>
<path d="M5545 5040 c28 -12 37 -12 30 0 -3 6 -16 10 -28 9 -21 0 -21 -1 -2
-9z"/>
<path d="M1682 5030 c-23 -4 -48 -12 -54 -18 -17 -17 -16 -175 2 -222 4 -10 7
-26 8 -47 2 -16 8 -23 22 -23 11 0 20 5 20 10 0 6 -4 10 -10 10 -16 0 -11 26
8 43 23 21 32 21 32 2 0 -21 22 -65 32 -65 17 0 38 28 38 49 0 20 30 35 61 31
37 -6 39 -1 39 86 0 109 -16 141 -74 149 -42 5 -48 5 -124 -5z"/>
<path d="M9055 5029 c-31 -19 -35 -29 -35 -91 0 -48 4 -59 22 -72 12 -9 34
-16 48 -16 41 0 50 -16 43 -85 -5 -58 -4 -63 22 -83 23 -18 41 -22 99 -22 101
0 116 15 111 107 -4 74 -18 93 -65 93 -40 0 -50 18 -50 87 0 51 -3 64 -19 72
-31 17 -153 23 -176 10z"/>
<path d="M140 5019 c0 -5 5 -7 10 -4 6 3 10 8 10 11 0 2 -4 4 -10 4 -5 0 -10
-5 -10 -11z"/>
<path d="M5395 5020 c3 -5 10 -10 16 -10 5 0 9 5 9 10 0 6 -7 10 -16 10 -8 0
-12 -4 -9 -10z"/>
<path d="M5359 5003 c0 -5 -2 -21 -4 -37 -5 -35 11 -23 20 17 5 17 3 27 -4 27
-6 0 -11 -3 -12 -7z"/>
<path d="M9698 4993 c-25 -28 -25 -124 0 -146 10 -10 28 -17 39 -17 35 0 53
-31 53 -92 0 -74 5 -85 46 -98 38 -13 50 -41 40 -90 -7 -38 7 -77 31 -84 53
-16 132 -17 167 -2 l37 16 -4 68 c-4 73 -11 92 -31 92 -28 0 -55 46 -62 105
-7 66 -22 85 -65 85 -35 0 -41 9 -41 74 -1 82 -18 98 -114 104 -69 4 -81 2
-96 -15z"/>
<path d="M10593 4961 c-17 -16 -23 -33 -23 -67 0 -60 -13 -82 -55 -90 -42 -7
-55 -28 -55 -83 0 -22 -4 -51 -10 -65 -8 -23 -15 -26 -54 -26 -56 0 -67 -14
-73 -92 -8 -92 1 -98 163 -105 163 -7 174 -12 174 -91 0 -64 -11 -82 -50 -82
-37 0 -56 -26 -64 -86 -7 -58 -2 -65 68 -99 l41 -20 1 -68 c1 -37 4 -70 7 -73
3 -3 20 -7 39 -10 18 -2 45 -6 59 -9 l27 -4 0 277 c0 191 -4 279 -11 284 -6 4
-13 38 -15 77 -3 55 -8 72 -21 76 -44 13 -61 44 -61 105 0 67 10 77 74 82 l36
2 0 82 c0 94 6 88 -110 99 -58 6 -68 4 -87 -14z"/>
<path d="M5647 4861 c-8 -69 -28 -115 -57 -131 -25 -13 -26 -30 -2 -30 53 0
128 72 114 108 -6 17 9 11 41 -16 9 -8 20 -13 23 -9 3 3 -6 16 -20 28 -26 23
-26 24 -6 31 43 16 10 67 -48 75 l-39 5 -6 -61z"/>
<path d="M6427 4848 c9 -52 9 -53 -10 -50 -27 5 -78 38 -70 45 3 4 1 7 -5 7
-19 0 -25 -21 -11 -46 14 -27 67 -46 86 -32 7 5 14 5 18 -2 3 -5 2 -10 -4 -10
-6 0 -7 -8 -2 -22 10 -28 -6 -91 -30 -117 -11 -12 -32 -21 -47 -21 -15 0 -36
-7 -46 -15 -11 -8 -39 -15 -62 -15 -45 0 -78 -23 -48 -34 35 -13 87 -5 150 25
62 30 68 35 95 93 16 33 31 84 35 113 5 44 2 57 -16 83 -28 39 -41 38 -33 -2z"/>
<path d="M11571 4743 c11 -38 29 -103 41 -145 21 -76 22 -78 53 -78 l31 0 23
96 c13 53 27 92 31 87 4 -4 13 -30 19 -58 31 -130 29 -126 63 -123 31 3 32 4
69 138 21 74 39 139 39 143 0 5 -14 7 -32 5 -32 -3 -32 -4 -54 -96 -11 -51
-23 -95 -26 -97 -4 -5 -15 31 -48 153 -9 33 -15 42 -33 42 -20 0 -25 -11 -46
-92 -13 -51 -27 -96 -30 -100 -4 -4 -17 37 -30 92 l-23 100 -33 0 -34 0 20
-67z"/>
<path d="M12150 4665 l0 -145 30 0 30 0 0 145 0 145 -30 0 -30 0 0 -145z"/>
<path d="M12430 4785 c0 -22 4 -25 40 -25 l40 0 0 -120 0 -120 30 0 30 0 0
120 0 120 40 0 c36 0 40 3 40 25 l0 25 -110 0 -110 0 0 -25z"/>
<path d="M12860 4665 l0 -145 30 0 30 0 0 60 0 60 70 0 70 0 0 -60 0 -60 30 0
30 0 0 145 0 145 -30 0 -30 0 0 -60 0 -60 -70 0 -70 0 0 60 0 60 -30 0 -30 0
0 -145z"/>
<path d="M13630 4665 l0 -145 90 0 c89 0 90 0 90 25 0 24 -3 25 -60 25 l-60 0
0 120 0 120 -30 0 -30 0 0 -145z"/>
<path d="M14096 4800 c-119 -38 -129 -206 -16 -262 127 -64 264 79 190 199
-35 58 -107 84 -174 63z m105 -69 c21 -22 29 -39 29 -66 0 -45 -45 -95 -85
-95 -40 0 -85 50 -85 95 0 45 45 95 85 95 16 0 38 -12 56 -29z"/>
<path d="M14526 4669 c30 -78 54 -143 54 -145 0 -2 17 -4 38 -4 l37 0 53 138
c29 75 52 141 52 145 0 5 -14 7 -31 5 -30 -3 -33 -8 -65 -98 -19 -52 -37 -102
-40 -110 -3 -9 -23 32 -46 98 l-40 112 -33 0 -33 0 54 -141z"/>
<path d="M14970 4665 l0 -145 100 0 100 0 0 25 c0 24 -2 25 -70 25 l-70 0 0
35 0 35 70 0 c68 0 70 1 70 25 0 24 -2 25 -70 25 l-70 0 0 35 0 35 70 0 c68 0
70 1 70 25 l0 25 -100 0 -100 0 0 -145z"/>
<path d="M15960 4665 l0 -145 30 0 30 0 0 60 0 60 70 0 c68 0 70 1 70 25 0 24
-2 25 -70 25 l-70 0 0 35 0 35 70 0 c68 0 70 1 70 25 l0 25 -100 0 -100 0 0
-145z"/>
<path d="M16380 4666 l0 -146 30 0 c29 0 30 1 30 50 0 47 2 50 25 50 20 0 30
-10 50 -50 23 -46 28 -50 61 -50 25 0 33 3 28 13 -4 6 -19 30 -32 51 -24 39
-24 39 -4 55 31 25 44 60 38 96 -11 56 -36 70 -137 73 l-89 4 0 -146z m154 78
c35 -34 6 -74 -55 -74 l-39 0 0 45 0 45 39 0 c23 0 46 -7 55 -16z"/>
<path d="M16890 4792 c-72 -36 -99 -119 -62 -191 23 -47 61 -72 113 -78 83 -8
148 48 156 134 4 39 0 55 -19 83 -27 40 -79 70 -123 70 -16 0 -46 -8 -65 -18z
m121 -61 c21 -22 29 -39 29 -66 0 -45 -45 -95 -85 -95 -40 0 -85 50 -85 95 0
45 45 95 85 95 16 0 38 -12 56 -29z"/>
<path d="M17330 4666 l0 -146 30 0 30 0 0 103 1 102 38 -100 c22 -58 44 -100
51 -100 8 0 31 43 54 100 l41 100 3 -102 3 -103 29 0 30 0 0 145 0 145 -44 0
-45 0 -32 -85 c-18 -47 -36 -85 -39 -85 -4 0 -21 37 -37 83 l-30 82 -42 3 -41
3 0 -145z"/>
<path d="M5200 4786 c0 -3 9 -10 20 -16 11 -6 20 -8 20 -6 0 3 -9 10 -20 16
-11 6 -20 8 -20 6z"/>
<path d="M6310 4777 c0 -10 5 -27 11 -39 17 -31 3 -33 -25 -3 l-25 27 1 -40
c0 -27 -6 -46 -21 -61 -21 -21 -19 -51 5 -51 7 0 25 5 39 12 20 9 31 9 45 0
16 -10 22 -7 39 15 12 14 21 33 21 42 0 22 -37 81 -51 81 -7 0 -18 8 -25 18
-13 16 -13 16 -14 -1z"/>
<path d="M5211 4694 c0 -12 7 -28 17 -35 15 -12 16 -12 6 1 -7 8 -14 24 -17
35 -4 19 -5 19 -6 -1z"/>
<path d="M8785 4688 c-2 -7 -6 -44 -8 -81 -4 -64 -3 -69 20 -84 14 -9 41 -19
61 -22 l37 -6 0 -72 c0 -40 5 -77 11 -83 11 -11 110 -30 161 -30 53 0 74 32
72 107 -2 76 -12 92 -64 99 -52 8 -65 26 -65 91 0 81 -17 93 -130 93 -64 0
-92 -4 -95 -12z"/>
<path d="M227 4683 c-4 -3 -7 -11 -7 -17 0 -6 5 -5 12 2 6 6 9 14 7 17 -3 3
-9 2 -12 -2z"/>
<path d="M1060 4666 c0 -8 5 -18 10 -21 6 -3 10 3 10 14 0 12 -4 21 -10 21 -5
0 -10 -6 -10 -14z"/>
<path d="M9458 4652 c-9 -9 -18 -43 -22 -74 -5 -51 -4 -60 16 -78 12 -11 32
-20 44 -20 39 0 54 -26 54 -92 0 -82 15 -94 126 -97 77 -2 84 0 98 21 21 32
23 119 4 146 -8 12 -30 25 -49 28 -49 10 -59 21 -59 71 0 50 -22 99 -47 107
-10 3 -48 5 -84 5 -51 0 -70 -4 -81 -17z"/>
<path d="M5338 4643 c7 -3 16 -2 19 1 4 3 -2 6 -13 5 -11 0 -14 -3 -6 -6z"/>
<path d="M5250 4633 c0 -4 5 -15 10 -23 8 -13 10 -13 10 2 0 9 -4 20 -10 23
-5 3 -10 3 -10 -2z"/>
<path d="M7408 4589 c-24 -9 -27 -16 -33 -85 l-7 -74 -32 0 c-57 0 -76 -31
-76 -123 0 -72 5 -79 68 -99 l43 -13 -3 -45 -3 -45 -57 -5 c-31 -3 -60 -9 -65
-13 -4 -5 -10 -39 -13 -75 -5 -64 -6 -67 -32 -70 -37 -4 -66 -47 -70 -103 -2
-34 -7 -44 -20 -44 -10 0 -23 -9 -31 -19 -7 -10 -25 -18 -40 -18 -29 0 -70 33
-49 40 18 6 15 26 -8 42 -20 14 -29 37 -10 25 6 -3 10 -1 10 4 0 6 13 11 28
11 17 0 37 10 50 23 43 45 22 184 -32 208 -17 8 -26 22 -31 48 -13 76 -41 111
-90 111 -20 0 -24 10 -30 80 -7 75 -8 76 -46 95 -41 22 -175 10 -197 -16 -20
-23 -28 -145 -11 -165 6 -7 27 -16 48 -20 53 -10 61 -20 61 -78 0 -57 12 -80
50 -99 22 -11 25 -19 26 -70 2 -81 -5 -107 -26 -107 -11 0 -17 7 -16 17 1 12
-20 28 -66 52 -64 32 -68 36 -69 70 l-2 36 -7 -40 -7 -40 -2 35 c-1 19 -6 42
-12 50 -9 13 -10 12 -5 -2 3 -10 1 -20 -4 -23 -5 -3 -12 10 -16 30 -3 19 -10
35 -15 35 -5 0 -9 9 -9 19 0 11 -5 23 -11 27 -11 7 -7 -18 10 -61 5 -11 20
-56 35 -100 15 -44 33 -83 40 -87 8 -4 33 -24 56 -43 24 -20 52 -41 64 -47 12
-6 23 -14 26 -17 19 -24 114 -90 123 -84 5 3 7 2 4 -4 -7 -12 280 -297 351
-347 28 -21 52 -43 52 -49 0 -12 14 -50 79 -217 45 -116 78 -230 107 -363 l19
-87 470 0 c586 1 940 19 1225 63 47 8 94 11 104 7 23 -8 30 -43 65 -320 38
-294 52 -340 105 -340 17 0 46 -4 64 -9 23 -7 49 -6 88 5 73 19 104 18 120 -3
8 -11 13 -13 14 -5 0 6 5 12 11 12 5 0 8 -4 4 -9 -3 -5 4 -12 15 -16 11 -3 26
-13 34 -20 12 -12 20 -10 55 15 22 17 48 30 56 30 21 0 125 79 125 95 0 7 14
18 30 25 17 7 39 23 49 36 11 13 22 24 25 24 4 0 24 11 44 25 20 14 43 25 50
25 8 0 26 12 41 28 47 47 131 117 155 127 13 6 25 15 26 20 2 6 19 21 39 34
20 14 48 37 63 53 14 15 31 28 37 28 6 0 19 4 29 9 9 6 28 12 42 15 14 3 42
21 63 39 l37 34 0 372 c0 246 -3 370 -10 366 -5 -3 -10 2 -10 12 0 12 -3 14
-8 6 -12 -18 -102 4 -103 25 0 15 -1 15 -7 2 -4 -9 -16 -15 -27 -15 -62 4 -61
3 -63 45 l-3 41 116 -7 115 -7 0 122 0 121 -85 0 c-47 0 -85 4 -85 9 0 6 -14
11 -32 13 -31 3 -32 5 -43 65 -7 35 -13 64 -16 65 -37 23 -61 28 -126 29 -90
1 -97 -5 -107 -85 -8 -57 0 -106 18 -118 6 -4 28 -8 49 -8 24 0 40 -5 44 -15
7 -20 -17 -106 -31 -110 -98 -27 -111 -33 -108 -54 3 -18 -2 -21 -35 -21 -25
0 -33 3 -24 9 9 6 15 38 18 98 l6 89 -32 27 c-30 25 -39 27 -122 27 -88 0 -89
0 -104 -30 -8 -16 -15 -44 -15 -62 0 -18 -3 -43 -6 -56 -5 -19 -9 -20 -22 -10
-13 11 -15 10 -9 -5 4 -10 7 -23 7 -28 0 -5 7 -9 16 -9 8 0 12 5 9 10 -3 6 -2
10 3 10 15 0 24 -33 11 -41 -21 -13 -1 -39 30 -39 21 0 32 -6 36 -21 8 -25 -1
-37 -17 -21 -7 7 -31 12 -55 12 -45 0 -48 4 -44 57 1 11 -3 24 -8 28 -6 3 -11
17 -11 30 0 17 -8 26 -30 34 -20 7 -30 7 -30 0 0 -6 -10 -9 -22 -7 -23 3 -26
10 -43 121 -5 32 -12 40 -50 58 -36 17 -45 26 -45 46 0 51 -23 104 -51 119
-16 8 -68 17 -117 20 -101 8 -93 15 -107 -88 -11 -77 0 -112 40 -131 20 -9 45
-17 55 -17 18 0 20 -7 20 -65 0 -81 19 -115 62 -115 23 0 29 -4 24 -16 -3 -9
-6 -21 -6 -28 0 -8 -15 -12 -42 -12 -40 1 -43 -1 -43 -26 1 -16 -2 -28 -5 -28
-4 0 -8 -28 -9 -62 -3 -91 -6 -94 -90 -90 l-71 4 0 62 c0 36 -5 67 -12 74 -10
10 -10 15 2 22 10 7 11 10 3 10 -9 0 -13 18 -13 55 0 30 5 55 10 55 6 0 10 8
10 18 0 10 5 23 11 29 9 9 5 19 -13 42 -14 16 -28 28 -30 26 -2 -2 -4 14 -5
35 -2 34 2 42 28 57 32 19 41 63 13 63 -12 0 -15 -6 -10 -25 6 -23 4 -25 -16
-20 -37 9 -120 4 -164 -10 -7 -2 -20 2 -30 10 -11 7 -51 16 -89 19 -39 4 -74
11 -80 17 -5 5 -19 9 -32 9 -13 0 -23 5 -23 12 0 6 -9 1 -20 -12 -12 -13 -20
-37 -20 -57 0 -59 -21 -125 -37 -119 -8 3 -17 6 -19 6 -2 0 -4 14 -4 30 0 23
-5 30 -19 30 -11 0 -21 -6 -24 -12 -2 -8 -8 -9 -13 -4 -5 5 -4 11 4 13 6 3 12
11 12 18 0 16 27 28 35 15 8 -13 35 -13 35 0 0 6 -7 10 -15 10 -21 0 -19 18 3
23 15 4 15 5 0 6 -13 1 -17 14 -20 67 -2 39 1 69 8 75 6 5 76 8 157 8 88 0
154 4 166 11 18 9 21 20 21 74 0 86 -18 101 -130 110 -30 3 -90 8 -132 11
l-78 7 -1 41 c-1 61 -8 98 -22 111 -17 17 -194 21 -213 5 -10 -8 -14 -33 -14
-83 1 -64 3 -73 26 -89 13 -10 34 -20 45 -22 38 -7 49 -24 43 -64 -8 -51 -21
-62 -68 -59 -37 3 -42 0 -58 -32 -22 -45 -22 -115 0 -159 19 -38 44 -49 122
-52 45 -2 46 -3 36 -26 -6 -12 -19 -23 -28 -23 -20 0 -34 -40 -24 -67 5 -16 5
-16 -6 -2 -7 9 -19 14 -26 11 -7 -2 -23 3 -35 11 -12 7 -39 17 -60 21 -34 6
-37 10 -31 29 4 12 8 40 8 62 1 47 -13 61 -73 71 -48 8 -61 25 -61 83 0 38 2
41 27 41 15 0 41 5 58 12 31 11 33 13 38 82 8 96 2 102 -119 111 -114 9 -134
-1 -134 -70 0 -50 -13 -65 -59 -65 -45 0 -82 -10 -76 -20 2 -4 -7 -18 -22 -31
-14 -13 -23 -19 -20 -12 5 7 -12 24 -40 44 -46 31 -55 33 -180 43 l-132 9 -35
-27 c-21 -16 -36 -36 -36 -48 0 -12 -3 -18 -7 -14 -4 4 -6 48 -5 99 2 108 -6
124 -69 135 l-44 7 -3 49 c-4 57 6 72 57 80 48 7 58 30 51 114 -5 65 -13 77
-65 94 -30 9 -117 8 -147 -3z m229 -631 c-3 -7 -5 -2 -5 12 0 14 2 19 5 13 2
-7 2 -19 0 -25z m-102 -87 c3 -5 2 -12 -3 -15 -5 -3 -9 1 -9 9 0 17 3 19 12 6z
m-50 -11 c3 -5 -1 -10 -9 -10 -9 0 -16 5 -16 10 0 6 4 10 9 10 6 0 13 -4 16
-10z m592 -62 c-3 -8 -6 -5 -6 6 -1 11 2 17 5 13 3 -3 4 -12 1 -19z m-1117
-128 c0 -5 -2 -10 -4 -10 -3 0 -8 5 -11 10 -3 6 -1 10 4 10 6 0 11 -4 11 -10z
m370 6 c0 -3 -4 -8 -10 -11 -5 -3 -10 -1 -10 4 0 6 5 11 10 11 6 0 10 -2 10
-4z m947 -88 c-2 -13 -4 -5 -4 17 -1 22 1 32 4 23 2 -10 2 -28 0 -40z m416 35
c-7 -2 -19 -2 -25 0 -7 3 -2 5 12 5 14 0 19 -2 13 -5z m57 -37 c0 -16 -44 -27
-82 -19 -21 4 -24 8 -15 19 16 18 97 19 97 0z m-1649 -68 c15 -28 5 -21 -21
15 -15 20 -17 27 -6 18 9 -8 22 -23 27 -33z m2329 -840 c12 -80 13 -78 -14
-78 -29 0 -50 31 -41 60 4 13 15 20 31 20 13 0 24 -1 24 -2z m45 -158 c16 -32
5 -50 -32 -50 -33 0 -50 45 -27 71 20 22 40 15 59 -21z m351 -57 c8 -32 -13
-54 -44 -47 -30 8 -41 52 -18 69 24 18 55 7 62 -22z m546 20 c22 -20 23 -31 1
-55 -19 -22 -39 -23 -59 -4 -14 15 -19 58 -7 69 12 12 46 7 65 -10z"/>
<path d="M15385 4563 c-4 -12 1 -24 14 -34 18 -15 18 -17 3 -32 -18 -19 -11
-32 13 -24 22 9 39 51 31 81 -8 31 -50 37 -61 9z"/>
<path d="M5940 4551 c0 -11 5 -23 10 -26 6 -3 10 3 10 14 0 11 -4 23 -10 26
-5 3 -10 -3 -10 -14z"/>
<path d="M5810 4535 c0 -5 5 -17 10 -25 5 -8 10 -10 10 -5 0 6 -5 17 -10 25
-5 8 -10 11 -10 5z"/>
<path d="M6020 4530 c0 -6 7 -10 15 -10 8 0 15 2 15 4 0 2 -7 6 -15 10 -8 3
-15 1 -15 -4z"/>
<path d="M5887 4510 c7 -25 23 -37 23 -17 0 8 -6 20 -14 26 -12 10 -13 8 -9
-9z"/>
<path d="M5281 4484 c0 -11 3 -14 6 -6 3 7 2 16 -1 19 -3 4 -6 -2 -5 -13z"/>
<path d="M5770 4466 c0 -8 7 -16 15 -20 13 -4 14 -2 5 14 -13 23 -20 26 -20 6z"/>
<path d="M5862 4460 c0 -14 2 -19 5 -12 2 6 2 18 0 25 -3 6 -5 1 -5 -13z"/>
<path d="M3425 4463 c-33 -8 -63 -48 -65 -84 -5 -81 0 -116 20 -137 19 -20 31
-22 125 -22 97 0 105 1 105 19 0 11 5 23 10 26 6 3 10 37 10 75 l0 70 -41 26
c-41 26 -121 39 -164 27z"/>
<path d="M6007 4449 c-13 -15 -15 -24 -7 -34 8 -9 7 -14 -4 -18 -11 -5 -15
-48 -7 -77 5 -15 29 63 27 84 -2 14 3 31 10 37 15 12 19 29 6 29 -4 0 -16 -9
-25 -21z"/>
<path d="M7936 4387 c-14 -10 -20 -31 -23 -83 -7 -98 5 -111 119 -119 85 -7
87 -7 113 20 25 24 27 32 22 81 -7 79 -24 100 -89 107 -81 10 -122 8 -142 -6z"/>
<path d="M5936 4371 c-4 -7 -5 -15 -2 -18 9 -9 19 4 14 18 -4 11 -6 11 -12 0z"/>
<path d="M9238 4314 c-30 -16 -35 -46 -22 -125 8 -45 29 -57 125 -65 64 -6 72
-5 94 16 22 20 25 32 25 87 0 90 -15 103 -117 103 -50 -1 -88 -6 -105 -16z"/>
<path d="M5889 4310 c-1 -3 -3 -15 -4 -28 -2 -23 -2 -23 14 -5 9 10 22 23 29
29 10 9 8 12 -12 10 -15 0 -27 -3 -27 -6z"/>
<path d="M5701 4281 c-9 -6 -10 -11 -2 -15 6 -4 11 -19 11 -34 0 -20 3 -23 9
-13 6 9 6 22 0 33 -6 10 -7 23 -4 28 8 12 4 12 -14 1z"/>
<path d="M10128 4272 c-25 -15 -28 -23 -28 -67 0 -57 -12 -75 -50 -75 -44 0
-60 -28 -60 -102 l0 -65 38 -16 c20 -8 67 -18 103 -21 57 -5 69 -4 90 15 20
17 24 29 22 76 l-2 55 50 20 50 21 -2 70 c-3 95 -15 107 -111 107 -51 0 -81
-6 -100 -18z"/>
<path d="M11798 4274 c-50 -26 -64 -86 -29 -118 11 -10 46 -25 78 -35 44 -13
58 -22 58 -36 0 -33 -46 -42 -94 -18 l-41 21 -15 -22 c-14 -19 -14 -22 2 -34
81 -59 213 -24 213 58 0 39 -28 66 -82 80 -55 13 -72 23 -76 43 -5 24 39 31
83 13 35 -15 39 -15 51 1 20 26 18 29 -26 47 -50 20 -87 20 -122 0z"/>
<path d="M12190 4145 l0 -145 30 0 30 0 0 60 0 60 70 0 70 0 0 -60 0 -60 30 0
30 0 0 145 0 145 -30 0 -30 0 0 -60 0 -60 -70 0 -70 0 0 60 0 60 -30 0 -30 0
0 -145z"/>
<path d="M12740 4272 c-48 -24 -80 -75 -80 -127 0 -75 69 -145 145 -145 76 0
145 70 145 145 0 75 -69 145 -145 145 -16 0 -46 -8 -65 -18z m121 -61 c21 -22
29 -39 29 -66 0 -45 -45 -95 -85 -95 -40 0 -85 50 -85 95 0 45 45 95 85 95 16
0 38 -12 56 -29z"/>
<path d="M13170 4146 l0 -146 30 0 c29 0 30 1 30 49 l0 49 60 4 c78 6 105 29
105 93 0 72 -25 89 -135 93 l-90 4 0 -146z m154 78 c35 -34 6 -74 -55 -74
l-39 0 0 45 0 45 39 0 c23 0 46 -7 55 -16z"/>
<path d="M13620 4146 l0 -146 30 0 c29 0 30 1 30 49 l0 49 60 4 c78 6 105 29
105 93 0 72 -25 89 -135 93 l-90 4 0 -146z m154 78 c35 -34 6 -74 -55 -74
l-39 0 0 45 0 45 39 0 c23 0 46 -7 55 -16z"/>
<path d="M14060 4145 l0 -145 100 0 100 0 0 25 c0 24 -2 25 -70 25 l-70 0 0
35 0 35 70 0 c68 0 70 1 70 25 0 24 -2 25 -70 25 l-70 0 0 35 0 35 70 0 c68 0
70 1 70 25 l0 25 -100 0 -100 0 0 -145z"/>
<path d="M14480 4146 l0 -146 30 0 c29 0 30 1 30 50 0 47 2 50 25 50 20 0 30
-10 50 -50 23 -46 28 -50 61 -50 l36 0 -16 25 c-9 14 -24 37 -33 51 -16 25
-16 27 4 43 31 25 46 59 39 96 -11 56 -36 70 -137 73 l-89 4 0 -146z m154 78
c35 -34 6 -74 -55 -74 l-39 0 0 45 0 45 39 0 c23 0 46 -7 55 -16z"/>
<path d="M14931 4277 c-11 -14 -1 -100 13 -114 10 -11 18 4 27 53 9 45 0 74
-21 74 -4 0 -13 -6 -19 -13z"/>
<path d="M15238 4274 c-50 -26 -64 -86 -29 -118 11 -10 46 -25 78 -35 44 -13
58 -22 58 -36 0 -33 -46 -42 -94 -18 l-41 21 -15 -22 c-14 -19 -14 -22 2 -34
81 -59 213 -24 213 58 0 39 -28 66 -82 80 -55 13 -72 23 -76 43 -5 25 44 33
85 13 33 -16 36 -16 49 1 20 26 18 29 -26 47 -50 20 -87 20 -122 0z"/>
<path d="M15948 4274 c-50 -26 -64 -86 -29 -118 11 -10 46 -25 78 -35 44 -13
58 -22 58 -36 0 -33 -46 -42 -94 -18 l-41 21 -15 -22 c-14 -19 -14 -22 2 -34
81 -59 213 -24 213 58 0 39 -28 66 -82 80 -55 13 -72 23 -76 43 -5 24 39 31
83 13 35 -15 39 -15 51 1 20 26 18 29 -26 47 -50 20 -87 20 -122 0z"/>
<path d="M16320 4265 c0 -22 4 -25 40 -25 l40 0 0 -120 0 -120 30 0 30 0 0
120 0 120 40 0 c36 0 40 3 40 25 l0 25 -110 0 -110 0 0 -25z"/>
<path d="M16820 4272 c-48 -24 -80 -75 -80 -127 0 -75 69 -145 145 -145 76 0
145 70 145 145 0 75 -69 145 -145 145 -16 0 -46 -8 -65 -18z m121 -61 c21 -22
29 -39 29 -66 0 -45 -45 -95 -85 -95 -40 0 -85 50 -85 95 0 45 45 95 85 95 16
0 38 -12 56 -29z"/>
<path d="M17250 4146 l0 -146 30 0 c29 0 30 1 30 49 l0 49 60 4 c78 6 105 29
105 93 0 72 -25 89 -135 93 l-90 4 0 -146z m154 78 c35 -34 6 -74 -55 -74
l-39 0 0 45 0 45 39 0 c23 0 46 -7 55 -16z"/>
<path d="M5681 4224 c0 -11 3 -14 6 -6 3 7 2 16 -1 19 -3 4 -6 -2 -5 -13z"/>
<path d="M6363 4233 c8 -8 111 -33 116 -28 2 3 -10 8 -27 11 -18 4 -30 10 -27
13 2 4 -12 8 -31 8 -20 1 -33 -1 -31 -4z"/>
<path d="M6498 4193 c7 -3 16 -2 19 1 4 3 -2 6 -13 5 -11 0 -14 -3 -6 -6z"/>
<path d="M5795 4170 c-3 -5 -1 -10 4 -10 6 0 11 5 11 10 0 6 -2 10 -4 10 -3 0
-8 -4 -11 -10z"/>
<path d="M6402 4083 c2 -9 9 -18 16 -21 18 -6 15 25 -4 32 -11 4 -14 1 -12
-11z"/>
<path d="M8822 3740 c0 -14 2 -19 5 -12 2 6 2 18 0 25 -3 6 -5 1 -5 -13z"/>
<path d="M5459 3723 c-13 -16 -12 -17 4 -4 16 13 21 21 13 21 -2 0 -10 -8 -17
-17z"/>
<path d="M12650 3380 l0 -290 585 0 585 0 0 290 0 290 -585 0 -585 0 0 -290z
m374 130 c16 -16 1 -21 -33 -9 -27 10 -36 9 -48 -4 -21 -20 -10 -34 37 -47 46
-12 66 -40 51 -69 -15 -27 -55 -34 -97 -16 -43 18 -39 32 5 17 38 -14 71 -5
71 19 0 12 -10 21 -27 25 -42 10 -73 32 -73 54 0 42 81 63 114 30z m138 14
c41 -7 42 -24 2 -24 -23 0 -24 -2 -24 -70 0 -40 -4 -70 -10 -70 -6 0 -10 30
-10 70 l0 70 -30 0 c-49 0 -35 27 15 29 11 0 37 -2 57 -5z m187 -9 c52 -27 60
-96 15 -137 -70 -62 -179 8 -144 92 13 32 51 59 83 60 10 0 31 -7 46 -15z
m203 -12 c38 -34 5 -86 -57 -87 -31 -1 -35 -4 -35 -28 0 -18 -5 -28 -15 -28
-12 0 -15 16 -15 80 l0 80 52 0 c34 0 58 -6 70 -17z m-472 -242 c8 -17 7 -20
-10 -18 -11 1 -20 2 -20 3 0 7 13 34 16 34 2 0 8 -9 14 -19z m40 12 c0 -5 -4
-14 -9 -21 -6 -10 -10 -9 -14 7 -3 14 0 21 9 21 8 0 14 -3 14 -7z m117 -9 c8
-21 -12 -40 -29 -27 -7 5 -23 8 -35 7 -13 0 -23 4 -23 11 0 7 10 11 25 10 14
-2 27 1 31 6 8 14 24 11 31 -7z m33 6 c0 -5 -4 -10 -10 -10 -5 0 -10 5 -10 10
0 6 5 10 10 10 6 0 10 -4 10 -10z m141 -4 c-7 -9 -8 -17 -2 -20 5 -3 12 0 14
6 4 9 6 10 6 1 1 -16 -16 -26 -24 -14 -3 6 -12 8 -20 4 -8 -3 -15 1 -15 8 0 7
3 10 6 6 4 -3 13 0 21 8 19 19 29 19 14 1z m-91 -11 c0 -6 -9 -11 -20 -11 -11
0 -20 5 -20 11 0 6 9 11 20 11 11 0 20 -5 20 -11z m40 0 c0 -8 -2 -15 -4 -15
-2 0 -6 7 -10 15 -3 8 -1 15 4 15 6 0 10 -7 10 -15z"/>
<path d="M13273 3500 c-44 -18 -42 -103 2 -120 72 -28 129 62 69 109 -29 23
-38 24 -71 11z"/>
<path d="M13460 3464 c0 -36 1 -36 32 -30 18 4 39 13 47 21 21 21 -3 45 -45
45 -32 0 -34 -2 -34 -36z"/>
<path d="M13206 3261 c-4 -5 -2 -12 3 -15 5 -4 12 -2 15 3 4 5 2 12 -3 15 -5
4 -12 2 -15 -3z"/>
<path d="M14010 3370 l0 -300 565 0 565 0 0 300 0 300 -565 0 -565 0 0 -300z
m471 45 l-22 -68 22 -23 c12 -13 29 -24 37 -24 15 0 12 -22 -5 -27 -6 -2 -25
9 -43 24 -25 20 -42 26 -67 24 -31 -2 -34 0 -31 21 2 17 10 24 34 26 28 3 32
8 44 55 15 60 29 82 43 68 6 -6 1 -34 -12 -76z m189 48 c0 -8 -15 -28 -34 -46
-39 -37 -56 -77 -32 -77 27 0 48 13 56 36 13 33 58 60 79 47 29 -18 25 -43 -8
-56 -17 -6 -31 -15 -31 -19 0 -14 47 -8 60 7 7 8 17 15 23 15 6 0 0 -11 -13
-25 -25 -27 -77 -34 -97 -14 -6 6 -20 8 -32 4 -16 -5 -21 -15 -21 -39 0 -40
-21 -60 -50 -51 -18 6 -21 13 -18 45 3 37 2 38 -23 33 -15 -3 -29 -1 -33 5
-10 16 19 97 34 97 8 0 14 -6 12 -14 -12 -57 -13 -71 -5 -71 11 0 24 24 48 93
11 30 25 52 39 57 23 9 46 -4 46 -27z m-114 6 c10 -17 -13 -36 -27 -22 -12 12
-4 33 11 33 5 0 12 -5 16 -11z"/>
<path d="M14400 3350 c0 -5 5 -10 11 -10 5 0 7 5 4 10 -3 6 -8 10 -11 10 -2 0
-4 -4 -4 -10z"/>
<path d="M14620 3451 c-7 -15 -7 -21 0 -21 12 0 25 28 17 36 -3 3 -10 -4 -17
-15z"/>
<path d="M14706 3394 c-9 -24 -7 -28 9 -14 17 14 20 30 6 30 -5 0 -12 -7 -15
-16z"/>
<path d="M14580 3290 c0 -11 5 -20 10 -20 6 0 10 9 10 20 0 11 -4 20 -10 20
-5 0 -10 -9 -10 -20z"/>
<path d="M9430 3541 c0 -6 10 -21 23 -33 l22 -23 3 23 c4 27 4 27 -25 36 -14
5 -23 3 -23 -3z"/>
<path d="M15355 3503 c-13 -13 -16 -27 -11 -61 5 -39 3 -46 -19 -64 -32 -25
-34 -79 -5 -108 24 -24 86 -27 117 -5 18 13 22 13 33 0 7 -8 22 -15 33 -15 20
0 20 1 -3 25 -20 21 -22 28 -12 50 15 32 15 55 2 55 -5 0 -10 -6 -10 -13 0 -7
-6 -21 -12 -30 -12 -16 -16 -14 -41 18 l-28 36 30 28 c32 30 40 68 19 89 -18
18 -74 15 -93 -5z m79 -18 c10 -28 -19 -65 -52 -65 -16 0 -24 50 -11 66 15 19
55 18 63 -1z m-10 -202 c-22 -16 -66 -17 -82 -1 -18 18 -15 64 5 84 16 16 19
14 56 -27 36 -40 37 -44 21 -56z"/>
<path d="M15670 3386 c0 -114 2 -136 15 -136 12 0 15 19 15 112 0 62 4 108 9
103 4 -6 25 -53 45 -105 21 -52 41 -99 46 -103 4 -5 22 27 39 70 62 153 60
152 60 31 1 -89 4 -108 16 -108 13 0 15 22 15 136 0 134 0 135 -22 132 -17 -2
-30 -23 -61 -101 -22 -54 -42 -95 -46 -92 -3 4 -22 48 -43 98 -32 79 -40 92
-62 95 l-26 3 0 -135z"/>
<path d="M16034 3435 c-51 -35 -55 -127 -7 -165 54 -42 136 -12 149 56 12 66
-30 124 -91 124 -17 0 -40 -7 -51 -15z m90 -26 c52 -41 25 -139 -39 -139 -64
0 -91 98 -39 139 15 12 32 21 39 21 7 0 24 -9 39 -21z"/>
<path d="M16230 3350 c0 -82 3 -100 15 -100 12 0 15 15 15 76 0 75 0 76 30 87
17 6 30 17 30 24 0 17 -11 16 -37 -2 -19 -13 -22 -13 -27 0 -3 8 -10 15 -16
15 -6 0 -10 -38 -10 -100z"/>
<path d="M16394 3435 c-51 -35 -55 -127 -7 -165 30 -23 90 -27 119 -6 24 18
13 31 -14 17 -35 -19 -69 -13 -91 15 -12 15 -21 31 -21 35 0 5 36 9 81 9 70 0
80 2 75 16 -3 9 -6 22 -6 30 0 8 -11 26 -25 39 -28 29 -79 33 -111 10z m95
-31 c12 -15 21 -31 21 -35 0 -5 -29 -9 -65 -9 -36 0 -65 4 -65 9 0 20 43 61
65 61 14 0 32 -11 44 -26z"/>
<path d="M5761 3418 c-5 -13 -7 -25 -5 -27 7 -7 34 21 34 35 0 22 -20 16 -29
-8z"/>
<path d="M12242 2562 c3 -150 4 -161 28 -195 34 -50 88 -72 175 -71 75 0 115
15 151 56 35 39 44 84 44 229 l0 139 -55 0 -55 0 0 -143 c0 -141 0 -144 -26
-168 -18 -16 -37 -24 -64 -24 -27 0 -46 8 -64 24 -26 24 -26 27 -26 168 l0
143 -56 0 -55 0 3 -158z"/>
<path d="M12720 2506 l0 -216 55 0 55 0 0 75 0 75 75 0 c114 0 159 32 171 122
6 51 -16 101 -59 132 -25 18 -46 21 -163 24 l-134 4 0 -216z m228 108 c12 -8
22 -24 22 -34 0 -34 -28 -50 -86 -50 l-54 0 0 50 0 50 48 0 c27 0 57 -7 70
-16z"/>
<path d="M13270 2675 l0 -45 60 0 60 0 0 -170 0 -170 55 0 55 0 0 170 0 170
60 0 60 0 0 45 0 45 -175 0 -175 0 0 -45z"/>
<path d="M13801 2711 c-53 -14 -114 -62 -139 -111 -20 -37 -23 -56 -19 -109 9
-122 93 -196 222 -195 80 0 136 23 178 74 64 75 61 207 -6 278 -50 54 -158 82
-236 63z m135 -107 c63 -42 57 -168 -11 -204 -33 -17 -86 -18 -118 -1 -72 39
-76 174 -5 208 51 25 92 24 134 -3z"/>
<path d="M14310 2595 l0 -124 35 -10 c27 -7 42 -6 63 5 60 31 137 8 130 -39
-7 -46 -98 -57 -157 -20 -24 15 -26 15 -53 -18 l-29 -34 25 -22 c31 -27 125
-47 180 -39 111 17 173 112 130 201 -9 20 -31 46 -48 56 -38 23 -113 25 -144
3 -22 -15 -22 -15 -22 30 l0 46 100 0 100 0 0 45 0 45 -155 0 -155 0 0 -125z"/>
<path d="M14816 2710 c-68 -21 -126 -116 -126 -205 0 -62 28 -131 69 -168 96
-86 238 -41 277 88 52 175 -67 330 -220 285z m85 -90 c18 0 39 -61 39 -115 0
-89 -34 -133 -90 -118 -30 8 -50 55 -50 118 0 83 32 132 78 119 8 -2 18 -4 23
-4z"/>
<path d="M15134 2701 c-110 -67 -19 -226 102 -180 81 30 93 136 20 180 -17 10
-44 19 -61 19 -16 0 -44 -9 -61 -19z m97 -62 c16 -30 -3 -69 -34 -69 -29 0
-47 17 -47 45 0 45 60 63 81 24z"/>
<path d="M15901 2710 c-90 -21 -161 -111 -161 -202 0 -129 88 -212 225 -212
140 0 225 83 225 219 -1 88 -60 162 -152 190 -56 16 -84 17 -137 5z m135 -106
c61 -41 58 -153 -6 -201 -45 -34 -133 -15 -163 36 -33 56 -15 144 35 168 51
25 92 24 134 -3z"/>
<path d="M16250 2505 l0 -215 55 0 55 0 0 85 0 85 100 0 100 0 0 45 0 45 -100
0 -100 0 0 40 0 40 100 0 100 0 0 45 0 45 -155 0 -155 0 0 -215z"/>
<path d="M16620 2505 l0 -215 55 0 55 0 0 85 0 85 100 0 100 0 0 45 0 45 -100
0 -100 0 0 40 0 40 100 0 100 0 0 45 0 45 -155 0 -155 0 0 -215z"/>
<path d="M15291 2510 c-72 -110 -131 -203 -131 -205 0 -3 11 -5 24 -5 20 0 45
32 155 200 72 110 131 202 131 205 0 3 -11 5 -24 5 -20 0 -45 -32 -155 -200z"/>
<path d="M15380 2483 c-23 -12 -39 -30 -48 -55 -13 -33 -12 -41 4 -75 39 -79
158 -81 196 -2 46 93 -56 182 -152 132z m88 -55 c17 -17 15 -63 -3 -78 -10 -8
-23 -9 -42 -3 -50 17 -40 93 11 93 12 0 27 -5 34 -12z"/>
<path d="M13744 1926 l-34 -34 0 -317 0 -317 34 -34 34 -34 806 0 c557 0 812
3 829 11 55 25 57 40 57 379 l0 312 -34 34 -34 34 -812 0 -812 0 -34 -34z
m263 -263 c13 -6 8 -9 -22 -13 -31 -4 -41 -10 -43 -27 -2 -14 3 -23 17 -28 33
-10 71 -45 71 -65 0 -38 -96 -69 -107 -34 -2 6 10 8 31 6 27 -3 37 1 45 16 12
22 6 29 -46 56 -70 35 -19 118 54 89z m354 -8 c58 -30 63 -116 10 -155 -40
-28 -67 -25 -102 9 -21 22 -29 39 -29 66 0 27 8 44 29 66 33 33 50 35 92 14z
m177 -1 c12 -8 22 -23 22 -34 0 -28 -35 -60 -65 -60 -22 0 -25 -4 -25 -35 0
-25 -4 -35 -15 -35 -13 0 -15 14 -14 83 1 45 6 85 11 88 18 11 62 7 86 -7z
m429 -4 c57 -35 54 -124 -6 -155 -42 -21 -59 -19 -92 14 -21 22 -29 39 -29 66
0 27 8 44 29 66 35 34 54 36 98 9z m-887 -26 l0 -35 48 3 c45 3 47 4 50 36 7
66 22 29 22 -53 0 -62 -3 -85 -13 -85 -9 0 -11 12 -9 40 l4 40 -51 0 -51 0 0
-40 c0 -22 -4 -40 -10 -40 -6 0 -10 35 -10 85 0 50 4 85 10 85 6 0 10 -16 10
-36z m653 -31 l42 -68 3 68 c4 100 22 82 22 -23 0 -108 -9 -110 -72 -12 l-43
67 -3 -67 c-4 -98 -22 -84 -22 17 0 108 14 111 73 18z m325 28 c7 -21 12 -45
12 -54 0 -40 21 -22 36 33 10 35 22 60 30 60 8 0 21 -25 31 -60 10 -33 21 -60
24 -60 4 0 12 27 19 60 8 39 18 60 27 60 9 0 12 -7 9 -17 -38 -133 -48 -163
-56 -158 -5 3 -17 31 -26 63 -10 31 -21 61 -24 65 -4 5 -16 -21 -26 -57 -10
-36 -24 -66 -31 -66 -12 0 -36 67 -49 136 -9 47 10 43 24 -5z"/>
<path d="M14275 1619 c-39 -74 36 -159 88 -101 23 26 22 94 -1 115 -31 28 -69
22 -87 -14z"/>
<path d="M14470 1614 c0 -32 2 -35 26 -32 56 6 53 68 -2 68 -21 0 -24 -5 -24
-36z"/>
<path d="M14892 1642 c-20 -13 -32 -70 -21 -100 12 -31 26 -42 56 -42 34 0 53
27 53 75 0 26 -6 50 -16 59 -17 17 -51 21 -72 8z"/>
<path d="M4005 1770 c3 -5 8 -10 11 -10 2 0 4 5 4 10 0 6 -5 10 -11 10 -5 0
-7 -4 -4 -10z"/>
<path d="M7495 1755 c-27 -8 -106 -26 -175 -40 -69 -14 -158 -33 -199 -42 -72
-16 -221 -14 -263 2 -15 6 -17 2 -13 -31 3 -22 12 -95 20 -164 26 -202 62
-360 83 -360 10 0 12 4 5 13 -15 18 -22 56 -13 62 5 3 8 31 8 63 -1 61 8 102
23 102 5 0 9 11 9 25 0 29 35 69 68 77 14 4 34 -2 57 -18 20 -13 40 -24 44
-24 5 0 11 -7 15 -15 3 -8 12 -15 19 -15 8 0 20 -15 28 -32 7 -18 17 -36 23
-40 5 -3 10 -51 10 -105 1 -74 5 -101 16 -110 13 -11 13 -12 -1 -13 -9 0 -22
-7 -29 -15 -7 -8 -25 -21 -40 -29 -24 -12 -32 -12 -48 0 -23 16 -38 4 -44 -36
-2 -15 -14 -30 -30 -38 -16 -7 -28 -20 -28 -28 0 -7 -7 -14 -15 -14 -31 0 -55
36 -65 96 -7 44 -8 9 -5 -136 2 -107 9 -214 16 -238 9 -34 9 -61 -2 -130 -9
-58 -13 -158 -12 -299 l2 -212 -92 -4 c-51 -1 795 -3 1878 -2 1431 0 1687 1
937 5 l-1032 5 22 33 c23 33 144 102 179 102 10 0 21 4 24 10 4 6 -11 10 -37
10 -24 0 -79 7 -123 15 -74 14 -100 28 -89 47 7 11 -20 10 -231 -7 -263 -21
-240 -25 -270 40 -15 30 -32 56 -38 56 -7 1 -48 2 -92 3 l-80 1 -6 30 c-4 17
-8 161 -9 320 -2 160 -6 364 -9 455 l-6 165 -45 -1 c-273 -6 -278 -7 -284 -28
-3 -12 -6 -25 -6 -29 0 -14 68 -37 109 -37 39 0 71 -19 71 -43 0 -7 4 -73 9
-147 6 -74 12 -189 16 -255 3 -66 10 -190 16 -275 5 -85 10 -175 10 -200 0
-25 2 -67 5 -95 3 -27 1 -76 -4 -107 -6 -40 -6 -59 2 -62 6 -2 -64 -5 -155 -5
-91 -1 -169 2 -172 6 -4 3 -3 11 2 17 16 21 41 181 46 296 2 47 9 141 15 210
6 69 9 172 6 230 -4 58 -5 128 -4 155 5 86 2 247 -4 330 -4 43 -3 84 2 90 4 5
8 21 8 35 -1 83 11 339 17 363 4 15 6 27 4 26 -2 0 -26 -7 -54 -14z m-578
-442 c-3 -10 -5 -4 -5 12 0 17 2 24 5 18 2 -7 2 -21 0 -30z m1382 -1238 c47
-13 118 -33 156 -44 l70 -19 -312 -1 c-339 -1 -325 -4 -304 53 13 32 22 33
175 35 110 1 142 -3 215 -24z"/>
<path d="M9486 1492 c-7 -11 4 -128 29 -312 9 -63 20 -227 26 -363 5 -137 14
-259 19 -272 5 -14 21 -27 35 -31 25 -6 122 -1 129 7 7 8 -11 216 -27 314 -34
210 -70 566 -58 578 13 13 179 -9 446 -58 77 -14 165 -30 196 -35 76 -11 96
-25 103 -73 13 -79 25 -388 19 -459 -4 -40 -6 -115 -5 -166 1 -52 -2 -110 -7
-130 -7 -25 -7 -40 1 -49 18 -22 -9 -43 -58 -43 -24 0 -44 -2 -44 -4 0 -2 7
-19 15 -39 13 -31 13 -36 -3 -50 -16 -14 -44 -16 -217 -11 -117 4 -210 2 -224
-3 -17 -7 92 -12 334 -16 197 -3 361 -4 365 -2 4 2 4 100 1 217 -3 117 -6 344
-6 503 l0 290 80 3 c44 2 82 8 86 14 4 5 5 24 4 42 l-2 31 -179 0 c-127 0
-208 6 -279 18 -55 10 -125 22 -155 27 -30 5 -131 23 -225 41 -178 32 -388 49
-399 31z"/>
<path d="M7150 1069 c0 -5 5 -7 10 -4 6 3 10 8 10 11 0 2 -4 4 -10 4 -5 0 -10
-5 -10 -11z"/>
<path d="M7556 408 c-3 -7 -7 -55 -9 -106 l-5 -93 66 6 c37 4 71 11 76 16 12
10 36 78 36 100 0 9 7 22 16 30 14 12 13 14 -8 22 -12 4 -48 13 -78 18 -30 6
-63 12 -73 15 -9 3 -19 -1 -21 -8z"/>
<path d="M9290 275 c-146 -7 -287 -14 -315 -14 -37 -1 -46 -4 -35 -11 8 -6 27
-7 42 -4 14 3 73 0 129 -6 73 -8 121 -8 164 -1 91 16 148 21 285 27 69 3 152
9 185 13 94 13 -139 11 -455 -4z"/>
<path d="M5168 273 c7 -3 16 -2 19 1 4 3 -2 6 -13 5 -11 0 -14 -3 -6 -6z"/>
<path d="M8753 243 c15 -2 39 -2 55 0 15 2 2 4 -28 4 -30 0 -43 -2 -27 -4z"/>
<path d="M4160 163 c0 -4 5 -15 10 -23 8 -13 10 -13 10 2 0 9 -4 20 -10 23 -5
3 -10 3 -10 -2z"/>
<path d="M4206 35 c4 -8 11 -15 16 -15 6 0 5 6 -2 15 -7 8 -14 15 -16 15 -2 0
-1 -7 2 -15z"/>
<path d="M10743 3 c9 -2 25 -2 35 0 9 3 1 5 -18 5 -19 0 -27 -2 -17 -5z"/>
</g>
</svg>
