<?xml version="1.0" standalone="no"?>
<!DOCTYPE svg PUBLIC "-//W3C//DTD SVG 20010904//EN"
 "http://www.w3.org/TR/2001/REC-SVG-20010904/DTD/svg10.dtd">
<svg version="1.0" xmlns="http://www.w3.org/2000/svg"
 width="1840.000000pt" height="600.000000pt" viewBox="0 0 1840.000000 600.000000"
 preserveAspectRatio="xMidYMid meet">

<g transform="translate(0.000000,600.000000) scale(0.100000,-0.100000)"
fill="#000000" stroke="none">
<path d="M0 3000 l0 -3000 5395 0 5395 0 0 404 0 403 -92 2 c-51 1 -99 2 -105
1 -31 -2 -82 -2 -513 5 -250 4 -462 7 -470 7 -8 0 -24 -1 -35 -1 -11 -1 -94 1
-185 3 -148 5 -247 6 -320 4 -43 -1 -696 12 -890 17 -102 3 -296 7 -432 9
l-247 3 16 -39 c8 -21 13 -41 10 -45 -4 -3 -37 -6 -74 -7 -57 -2 -82 -9 -156
-44 -49 -23 -94 -42 -100 -43 -7 0 -39 -17 -72 -37 -54 -33 -60 -41 -63 -74
-2 -20 4 -53 12 -73 9 -21 16 -48 16 -61 0 -55 26 -118 66 -161 23 -23 44 -43
47 -43 4 0 7 17 7 38 0 21 7 48 16 60 21 30 3 28 -27 -4 -22 -23 -24 -24 -36
-8 -15 21 -17 44 -3 44 6 0 10 -7 10 -16 0 -10 10 -2 25 20 14 20 25 39 25 42
0 2 -18 -7 -40 -21 -49 -31 -50 -31 -50 0 0 14 -6 34 -12 45 -11 17 -10 26 6
53 11 17 28 49 38 70 18 35 34 52 117 125 43 37 86 52 146 52 l57 0 -4 -72 -3
-73 375 -7 c206 -3 517 -9 690 -12 173 -4 484 -9 690 -11 206 -3 383 -8 392
-11 17 -5 18 -23 18 -224 0 -187 -2 -221 -16 -235 -14 -13 -37 -15 -162 -11
-81 3 -271 7 -422 11 -151 3 -338 8 -415 10 -77 2 -331 7 -565 10 -234 3 -442
8 -463 10 -33 4 -37 2 -33 -13 3 -9 8 -34 12 -54 l6 -38 -1463 1 c-1068 0
-1460 3 -1448 11 15 10 13 17 -13 67 -50 96 -60 92 -33 -12 8 -32 15 -60 15
-62 0 -3 -84 -5 -187 -5 -172 0 -232 7 -205 24 11 6 4 55 -10 73 -5 7 -8 25
-6 40 2 22 -1 29 -19 31 -21 3 -22 6 -21 160 1 86 -4 195 -11 242 -29 191 -37
347 -25 484 12 138 23 176 64 215 16 16 20 26 12 29 -15 5 -16 22 -2 22 18 0
46 -33 60 -70 7 -19 28 -51 47 -70 18 -20 33 -41 33 -47 0 -5 14 -27 30 -48
28 -35 30 -44 30 -116 0 -91 14 -105 23 -23 6 54 12 72 21 63 3 -2 6 -39 8
-82 2 -42 6 -77 10 -77 4 0 8 -14 10 -32 5 -52 25 -45 35 14 9 52 9 51 17 -57
4 -60 13 -116 18 -122 6 -7 7 -29 3 -49 -4 -23 -3 -34 4 -30 5 4 13 32 17 64
3 31 9 61 12 67 14 23 10 61 -8 78 -11 10 -20 23 -20 30 -1 7 -8 66 -16 132
-9 66 -16 134 -17 152 0 18 -4 30 -9 27 -4 -3 -8 1 -9 8 0 7 -3 26 -5 41 -4
26 -3 28 18 21 13 -4 33 -17 45 -30 28 -30 50 -31 58 -1 10 34 27 67 36 67 5
0 25 11 45 25 47 32 90 43 211 55 98 9 127 19 233 75 25 14 77 32 115 40 39 9
88 21 110 26 22 6 74 17 115 24 41 8 129 25 195 39 66 14 128 25 138 26 11 0
33 6 50 14 38 16 136 39 266 61 70 12 123 15 205 10 116 -7 120 -7 255 47 30
12 35 11 45 -6 28 -47 44 -61 57 -49 6 6 18 9 25 6 30 -11 11 18 -28 44 -40
27 -48 28 -152 27 -77 -1 -150 -9 -241 -28 -71 -14 -177 -33 -235 -41 -308
-42 -768 -143 -1002 -219 -267 -88 -434 -136 -471 -136 -14 0 -28 -4 -32 -9
-11 -19 -64 -23 -81 -7 -14 15 -14 16 0 16 12 0 16 10 16 35 0 47 -23 91 -57
109 l-28 14 45 12 c25 6 56 15 70 21 25 9 25 9 -3 4 -73 -14 -116 -16 -132 -7
-15 8 -9 11 31 16 28 4 56 12 64 17 11 7 1 9 -32 4 l-46 -6 5 43 c2 24 9 54
14 68 7 18 5 38 -6 69 -8 24 -15 53 -15 65 0 11 -7 34 -15 50 -14 26 -30 82
-55 191 -5 22 -17 72 -26 110 -9 39 -18 88 -20 110 -5 64 -21 167 -34 210 -6
22 -15 58 -20 80 -35 176 -43 224 -42 250 1 32 -30 192 -52 272 -56 197 -76
252 -120 322 -29 46 -56 57 -32 14 14 -27 36 -166 36 -229 0 -17 6 -37 13 -43
15 -12 21 -71 8 -71 -5 0 -14 7 -21 15 -7 8 -17 15 -23 15 -6 0 5 -16 26 -36
36 -35 46 -54 29 -54 -5 0 -17 10 -28 21 -10 12 -53 49 -94 82 -41 34 -77 64
-80 67 -3 3 -21 18 -40 34 -53 45 65 -69 159 -153 45 -40 88 -83 95 -95 9 -14
16 -75 20 -186 4 -91 9 -180 12 -198 5 -24 1 -38 -11 -52 -18 -19 -17 -20 6
-20 23 -1 23 -1 5 -15 -66 -50 -332 -15 -351 47 -10 30 -33 39 -132 54 -54 7
-109 17 -123 20 -15 3 -21 2 -15 -4 6 -5 59 -17 120 -26 60 -10 113 -20 118
-23 5 -3 0 -14 -10 -26 -18 -20 -18 -20 6 -14 18 4 21 3 12 -6 -6 -6 -11 -20
-11 -32 0 -12 -5 -26 -12 -33 -9 -9 -9 -15 0 -24 16 -16 15 -75 0 -81 -10 -4
-9 -8 2 -16 13 -10 13 -12 0 -21 -11 -7 -12 -10 -2 -10 10 0 12 -13 8 -53 -6
-52 13 -227 35 -322 6 -27 13 -73 14 -101 1 -28 8 -61 15 -73 10 -19 9 -25 -5
-35 -15 -10 -15 -15 -4 -27 15 -15 18 -43 22 -222 2 -73 8 -122 15 -129 15
-15 16 -55 2 -60 -7 -2 -7 -15 0 -38 14 -48 13 -153 -2 -168 -9 -9 -9 -12 0
-12 9 0 12 -19 9 -67 -3 -55 -7 -68 -23 -74 -15 -6 -16 -8 -2 -8 14 -1 16 -18
17 -146 2 -137 -7 -193 -28 -180 -5 2 2 -22 15 -55 37 -89 25 -212 -18 -198
-7 3 -27 -1 -45 -9 -18 -7 -61 -13 -95 -13 -61 0 -62 0 -39 -17 22 -15 31 -15
80 -3 89 20 140 23 157 9 14 -11 13 -14 -5 -21 -33 -12 -35 -34 -7 -88 26 -51
34 -86 16 -75 -5 3 -10 13 -10 21 0 9 -6 21 -13 29 -23 22 -136 75 -180 84
-88 18 -277 71 -351 100 l-77 30 -19 -42 -19 -42 0 32 c-1 17 3 35 9 38 5 3
10 44 10 90 0 98 6 117 96 286 l64 119 -5 126 c-3 69 -1 162 5 207 5 45 14
127 20 182 27 253 40 365 50 422 15 92 27 355 20 453 -5 70 -7 76 -10 35 l-3
-50 -6 40 c-7 49 -31 53 -43 8 -5 -18 -13 -33 -18 -33 -6 0 -10 -12 -10 -27
-1 -26 -2 -27 -14 -10 -13 17 -15 14 -29 -30 -8 -26 -18 -83 -22 -127 -5 -64
-3 -82 10 -96 9 -10 19 -34 22 -54 5 -32 3 -36 -16 -36 -12 0 -21 6 -21 15 0
26 -18 16 -24 -13 -14 -78 -17 -124 -7 -117 6 3 11 13 11 21 0 9 6 14 13 12
19 -7 24 -68 9 -113 -16 -48 -15 -46 -30 -36 -10 6 -10 14 -2 36 11 28 5 69
-9 60 -5 -2 -11 -30 -14 -62 -4 -32 -13 -105 -21 -163 -8 -58 -20 -139 -25
-180 -6 -41 -17 -118 -25 -170 -18 -113 -60 -417 -76 -550 -7 -52 -18 -142
-26 -200 -8 -58 -19 -143 -25 -190 -6 -47 -13 -100 -15 -117 l-5 -33 -1509 0
-1510 0 0 2990 0 2990 2195 0 2196 0 -7 -35 c-7 -39 -11 -37 81 -40 28 -2 59
-6 69 -10 20 -9 17 3 -10 35 -11 13 -6 15 34 18 34 1 43 -1 32 -8 -8 -5 -10
-10 -5 -10 21 0 38 19 32 34 -4 10 -1 16 8 16 8 0 15 -5 15 -10 0 -7 6 -7 19
0 21 11 91 14 91 4 0 -14 -36 -33 -62 -34 -23 0 -28 -4 -28 -25 0 -14 -5 -25
-11 -25 -6 0 -9 6 -6 14 3 8 3 17 0 20 -10 9 -61 -26 -74 -51 -7 -13 -16 -23
-21 -23 -5 0 -6 5 -3 10 4 6 -8 10 -29 10 -19 0 -38 5 -41 10 -10 16 -95 1
-124 -22 -27 -21 -41 -17 -21 7 10 12 10 15 -4 15 -20 0 -20 -30 -1 -84 13
-38 13 -40 -11 -59 -18 -14 -25 -28 -24 -51 3 -48 1 -58 -10 -51 -6 3 -10 1
-10 -4 0 -6 5 -11 10 -11 6 0 10 -15 10 -32 1 -18 7 -46 14 -63 9 -20 10 -39
4 -56 -5 -14 -5 -36 0 -50 9 -27 9 -25 -12 -199 -8 -69 -18 -150 -21 -180 -3
-30 -10 -73 -16 -95 -8 -37 -16 -100 -55 -440 -8 -71 -17 -138 -20 -149 -7
-21 -21 -139 -32 -261 -4 -44 -11 -86 -15 -92 -13 -21 0 -16 98 36 122 65 194
121 243 186 45 59 45 56 3 221 -50 200 -64 289 -66 434 -1 80 -7 183 -13 230
-19 155 -23 216 -13 195 5 -11 10 -37 10 -59 1 -21 5 -55 11 -75 5 -20 12 -49
15 -64 3 -15 10 -25 15 -22 6 4 10 -10 11 -32 1 -104 18 -197 45 -260 8 -17
14 -34 14 -37 0 -4 14 -36 30 -71 17 -35 30 -69 30 -75 0 -5 4 -10 9 -10 5 0
11 -9 14 -21 5 -20 5 -20 -14 -3 -10 9 -19 24 -19 33 0 10 -3 12 -10 5 -7 -7
-1 -28 20 -65 45 -81 38 -97 -9 -19 -22 38 -29 52 -56 118 -10 23 -19 41 -21
39 -2 -2 23 -78 39 -117 15 -36 36 -108 43 -145 3 -22 30 -78 59 -125 28 -47
61 -101 73 -120 31 -52 156 -169 255 -238 l87 -62 0 39 c0 21 -7 60 -15 87
-19 63 -19 67 5 54 28 -15 40 -42 54 -123 6 -40 16 -72 21 -73 6 0 36 -9 68
-19 39 -13 53 -22 45 -28 -8 -5 -3 -6 12 -2 14 4 31 13 39 20 11 11 7 15 -22
24 -19 7 -46 22 -59 34 -29 29 -78 85 -78 91 0 5 113 -55 120 -64 8 -10 77
-40 93 -40 12 0 33 29 25 35 -2 0 -34 21 -73 45 -153 95 -178 109 -187 104
-13 -8 -60 25 -52 37 3 6 13 8 22 4 11 -4 8 3 -8 21 -30 34 -20 28 92 -57 68
-52 128 -89 143 -89 3 0 5 11 5 25 0 16 -10 31 -27 42 -39 24 -86 63 -77 63 4
0 -3 12 -17 26 -21 23 -24 34 -23 101 1 66 5 80 31 117 30 42 50 106 34 106
-5 0 -19 -9 -33 -19 -77 -61 -435 -79 -476 -24 -7 10 -15 34 -19 55 -3 21 -10
38 -14 38 -5 0 -7 11 -3 24 7 27 -15 83 -50 129 -15 19 -26 40 -26 47 0 7 -3
10 -7 7 -4 -4 -29 37 -56 90 -41 82 -49 109 -53 168 -6 87 6 160 26 161 8 0
27 -6 42 -15 25 -14 32 -13 85 9 77 31 98 54 98 106 0 60 -43 102 -113 111
-42 5 -52 9 -52 25 0 10 7 21 15 24 8 4 15 12 15 20 0 10 5 11 23 3 31 -14 89
12 123 56 21 28 33 35 60 35 21 0 42 -8 54 -20 12 -12 15 -20 8 -20 -9 0 -8
-4 2 -10 8 -5 36 -10 62 -10 26 0 49 -4 52 -9 3 -5 15 -11 26 -14 13 -3 18 -1
13 6 -4 7 0 8 13 1 10 -5 53 -9 95 -9 57 0 82 -4 95 -16 11 -9 34 -20 51 -24
18 -3 36 -11 39 -16 3 -6 17 -14 30 -19 30 -12 33 -45 3 -37 -16 4 -18 3 -9
-8 6 -8 18 -11 26 -8 8 3 14 0 14 -6 0 -6 -6 -11 -12 -12 -7 0 -4 -5 7 -10 11
-6 32 -36 47 -69 25 -53 27 -72 32 -212 6 -192 -4 -269 -48 -370 l-35 -80 31
-27 c17 -14 34 -28 38 -31 25 -19 57 -294 52 -447 -3 -66 2 -72 41 -51 26 13
42 34 74 97 23 47 31 128 14 147 -5 5 -11 28 -13 52 -3 32 0 42 12 42 13 1 13
2 -1 13 -12 10 -13 16 -3 37 7 13 9 29 5 35 -5 5 -16 51 -26 100 -9 50 -24
119 -33 155 -9 36 -15 82 -14 102 2 21 -2 66 -8 100 -10 57 -22 140 -49 340
-5 37 -14 91 -21 120 -16 72 -41 169 -47 185 -3 8 2 13 13 13 15 1 14 4 -7 15
-18 10 -25 21 -23 37 1 13 3 27 3 32 1 4 10 6 22 3 13 -4 18 -1 15 6 -3 7 -9
20 -12 30 -4 9 -9 17 -13 17 -3 0 -6 17 -6 38 -1 23 -10 51 -24 70 -19 27 -29
32 -64 32 -31 0 -49 7 -69 24 -14 14 -29 22 -33 18 -4 -4 -6 0 -4 8 1 8 -1 23
-6 33 -7 17 -10 16 -26 -10 -19 -27 -19 -28 -19 -4 0 16 -4 21 -14 18 -14 -6
-46 21 -46 39 0 5 -22 19 -48 31 l-47 21 226 1 c124 1 229 -2 232 -5 3 -4 2
-15 -4 -25 -11 -21 -45 -25 -52 -6 -4 9 -6 8 -6 -2 -1 -8 48 -62 108 -120 97
-95 113 -116 154 -201 76 -157 151 -404 165 -543 4 -40 11 -72 17 -72 15 0 23
63 34 275 6 107 15 198 20 203 9 9 1236 -8 1571 -23 205 -9 747 -13 1661 -11
496 1 453 14 464 -136 12 -170 34 -346 43 -355 5 -5 76 -11 158 -13 152 -3
188 -9 181 -28 -5 -16 -66 -28 -102 -20 -16 4 -34 6 -39 4 -13 -3 -308 -1
-621 4 -143 2 -458 7 -700 10 -242 3 -546 7 -675 10 -129 2 -406 7 -615 10
-209 4 -483 8 -610 10 -126 2 -354 5 -505 7 l-274 3 -12 -85 c-13 -97 -29
-162 -51 -204 -13 -25 -13 -44 -2 -148 11 -105 11 -126 -2 -163 l-15 -42 36
-20 c51 -30 253 -73 342 -73 62 0 84 -5 124 -26 27 -14 81 -39 119 -54 l70
-28 605 -6 c680 -7 1235 -14 1635 -21 845 -15 1386 -26 1534 -29 83 -2 115 -7
122 -17 14 -24 -19 -32 -105 -24 -69 5 -170 6 -276 2 -14 0 -200 3 -415 7
-214 4 -502 9 -640 11 -137 3 -448 7 -690 10 -242 4 -512 8 -600 10 -88 2
-362 7 -610 10 -247 3 -462 8 -477 10 -27 4 -27 4 16 -53 27 -34 68 -112 102
-194 l59 -137 1185 -1 c1342 -1 1760 -6 1774 -20 12 -12 19 -270 8 -287 -6
-10 -111 -11 -492 -3 -874 17 -1518 29 -1938 34 -228 3 -417 8 -422 11 -22 14
-14 -20 35 -150 l52 -140 59 -1 c56 -1 565 -1 649 0 22 0 162 -3 310 -7 149
-4 398 -10 555 -12 548 -9 917 -15 1140 -20 626 -13 748 -16 785 -19 22 -2
114 -6 205 -7 l165 -4 3 140 c1 77 -2 149 -7 160 -12 24 -44 320 -39 361 2 21
9 30 26 32 l22 3 0 260 0 259 -50 0 c-37 0 -52 4 -59 18 -12 24 -35 294 -27
326 6 25 10 26 71 26 l65 0 0 125 c0 69 -2 125 -5 125 -3 0 -14 -6 -25 -12
-25 -16 -55 0 -55 28 0 16 7 19 43 16 l42 -2 0 525 0 525 3788 3 c2083 1 -345
3 -5395 5 l-9183 2 0 -3000z m6755 2980 c-27 -5 -129 -10 -225 -11 -156 -3
-165 -3 -80 -9 l95 -6 -100 -2 c-55 -1 -192 -3 -304 -4 -203 -2 -204 -1 -208
20 l-3 22 438 -1 c250 -1 416 -5 387 -9z m2783 -52 l3 -58 -123 1 c-68 0 -181
5 -253 10 -71 5 -276 14 -455 19 -179 6 -336 12 -350 14 -14 2 -43 4 -65 5
-35 1 -38 3 -20 13 11 6 23 16 28 22 5 8 9 8 15 -1 10 -16 82 -28 82 -14 0 7
5 9 10 6 6 -3 10 1 10 9 0 8 10 17 23 19 12 3 -7 3 -43 1 -36 -3 -78 0 -95 5
-20 6 188 9 600 8 l630 -2 3 -57z m1052 -46 c0 -71 -4 -112 -12 -120 -19 -19
-28 -14 -28 17 0 52 -14 56 -254 61 -122 3 -229 9 -238 14 -11 5 -19 25 -23
54 -4 26 -9 55 -12 65 -4 16 14 17 281 17 l286 0 0 -108z m-5665 78 c3 -5 1
-10 -4 -10 -6 0 -11 5 -11 10 0 6 2 10 4 10 3 0 8 -4 11 -10z m1984 -6 c2 -2
-63 -3 -145 -2 -111 1 -131 3 -79 7 69 6 216 2 224 -5z m-1945 -2 c3 -5 -1 -9
-9 -9 -8 0 -12 4 -9 9 3 4 7 8 9 8 2 0 6 -4 9 -8z m-54 -42 c0 -5 -2 -10 -4
-10 -3 0 -8 5 -11 10 -3 6 -1 10 4 10 6 0 11 -4 11 -10z m-370 -80 c0 -5 -7
-10 -15 -10 -8 0 -15 5 -15 10 0 6 7 10 15 10 8 0 15 -4 15 -10z m841 -61 c10
-13 19 -40 20 -59 2 -19 7 -41 12 -48 14 -18 5 -22 -28 -14 -30 9 -42 37 -23
60 9 10 6 14 -11 19 -13 3 -20 11 -17 19 3 7 1 16 -4 19 -12 7 11 35 24 31 6
-1 18 -13 27 -27z m579 2 c0 -5 8 -12 18 -14 9 -3 -7 -5 -35 -6 -41 -1 -53 2
-53 14 0 10 11 15 35 15 19 0 35 -4 35 -9z m258 -18 c2 -8 -6 -13 -21 -13 -32
0 -57 9 -57 22 0 14 73 5 78 -9z m1857 2 c127 -3 316 -7 420 -10 105 -2 335
-7 513 -11 260 -6 324 -10 334 -21 20 -24 -10 -34 -82 -28 -36 3 -292 8 -570
10 -278 2 -604 6 -725 10 -355 8 -753 17 -1005 21 -129 2 -260 5 -290 7 -30 1
-110 4 -177 5 -106 2 -123 4 -123 18 0 15 60 16 738 10 405 -3 841 -9 967 -11z
m-2765 -56 c0 -6 -4 -7 -10 -4 -5 3 -10 11 -10 16 0 6 5 7 10 4 6 -3 10 -11
10 -16z m4235 11 c3 -6 -1 -13 -10 -16 -19 -8 -30 0 -20 15 8 14 22 14 30 1z
m-4845 -240 c0 -12 -25 -30 -41 -30 -9 0 -19 8 -21 18 -4 14 2 17 29 17 18 0
33 -2 33 -5z m390 -14 c0 -3 -4 -8 -10 -11 -5 -3 -10 -1 -10 4 0 6 5 11 10 11
6 0 10 -2 10 -4z m40 -6 c0 -5 -7 -10 -15 -10 -8 0 -15 5 -15 10 0 6 7 10 15
10 8 0 15 -4 15 -10z m5424 -23 l29 -11 -4 -230 -4 -231 22 -3 c51 -7 53 -62
3 -62 -16 0 -31 4 -35 9 -6 10 -38 8 -88 -4 -18 -5 -35 -2 -51 8 -15 11 -27
12 -33 6 -6 -6 -25 -10 -44 -10 -19 1 -67 1 -107 1 -40 0 -82 5 -93 11 -12 6
-25 7 -32 1 -18 -13 -75 -14 -97 -2 -17 9 -18 15 -10 31 9 16 20 19 63 17 l52
-3 -2 35 c-1 19 -9 127 -18 239 -14 168 -14 205 -3 212 18 12 417 0 452 -14z
m-5879 -244 c-11 -2 -30 -9 -42 -15 -25 -12 -39 -6 -28 11 3 6 25 10 48 10 23
-1 33 -3 22 -6z m1525 -467 c52 -3 412 -8 800 -12 388 -3 712 -8 720 -10 8 -3
440 -8 960 -10 631 -4 954 -9 973 -16 22 -9 27 -17 28 -47 0 -20 2 -47 5 -61
16 -109 22 -226 11 -235 -8 -7 -102 -8 -277 -4 -603 15 -810 19 -1315 28 -291
5 -543 9 -560 9 -16 0 -406 3 -865 7 -599 5 -838 11 -846 19 -8 8 -8 47 1 146
7 74 10 138 8 143 -2 4 -1 16 2 27 6 17 17 20 113 22 59 2 116 2 127 1 11 -1
63 -4 115 -7z m-1596 -52 c3 -8 2 -12 -4 -9 -6 3 -10 10 -10 16 0 14 7 11 14
-7z m6026 -613 c24 -1 24 -1 4 -16 -33 -22 -264 -18 -264 5 0 14 30 17 135 14
55 -2 111 -3 125 -3z m118 -13 c-7 -19 -63 -22 -78 -4 -11 14 -7 16 35 16 33
0 45 -4 43 -12z m-5743 -78 c3 -6 -1 -7 -9 -4 -18 7 -21 14 -7 14 6 0 13 -4
16 -10z m5199 -437 c3 -21 7 -60 8 -88 l3 -50 -35 -3 c-19 -1 -40 1 -46 5 -17
12 -3 171 16 183 23 14 48 -7 54 -47z m-6256 -1146 c6 -5 12 -24 12 -42 0 -19
7 -60 15 -92 8 -32 17 -121 19 -198 5 -134 11 -185 42 -359 8 -44 12 -81 10
-83 -12 -12 -51 84 -67 162 -10 50 -23 113 -29 140 -6 28 -22 111 -35 185 -13
74 -31 164 -39 200 -9 36 -15 75 -16 88 0 21 3 22 38 16 20 -4 43 -11 50 -17z
m132 -39 c0 -18 -2 -20 -9 -8 -6 8 -7 18 -5 22 9 14 14 9 14 -14z m-807 -845
c-4 -10 -9 -11 -16 -4 -5 5 -7 18 -3 28 6 14 9 15 16 4 4 -8 6 -21 3 -28z
m-46 -285 c-3 -7 -5 -2 -5 12 0 14 2 19 5 13 2 -7 2 -19 0 -25z m13 -58 c0 -5
-7 -10 -15 -10 -8 0 -15 5 -15 10 0 6 7 10 15 10 8 0 15 -4 15 -10z m-32 -118
c-4 -27 -1 -44 11 -59 23 -28 16 -90 -10 -98 -10 -4 -19 -12 -19 -18 0 -7 -7
-20 -14 -29 -11 -15 -12 -10 -9 35 4 53 20 158 29 190 9 31 17 18 12 -21z
m-57 -365 c-10 -9 -11 -8 -5 6 3 10 9 15 12 12 3 -3 0 -11 -7 -18z m7320 -144
c5 -5 13 -69 19 -143 5 -74 14 -173 20 -219 5 -46 7 -88 4 -92 -9 -15 -411
-11 -421 4 -8 12 -5 419 3 448 4 15 25 16 186 13 99 -2 185 -7 189 -11z
m-6928 -389 c32 -8 70 -14 83 -14 14 0 46 -9 72 -19 26 -10 69 -27 95 -36 85
-30 44 -37 -134 -24 -136 10 -172 16 -211 36 -55 27 -98 32 -78 9 6 -8 33 -23
58 -32 103 -38 97 -44 -40 -44 l-127 0 -7 34 c-3 19 -3 39 0 44 3 5 33 17 66
26 59 17 63 17 131 -4 39 -12 73 -19 76 -16 14 14 -18 28 -88 38 -41 6 -78 15
-84 20 -13 12 113 0 188 -18z"/>
<path d="M6078 5963 c45 -2 119 -2 165 0 45 1 8 3 -83 3 -91 0 -128 -2 -82 -3z"/>
<path d="M4290 5840 c0 -5 5 -10 11 -10 5 0 7 5 4 10 -3 6 -8 10 -11 10 -2 0
-4 -4 -4 -10z"/>
<path d="M5468 5673 c7 -3 16 -2 19 1 4 3 -2 6 -13 5 -11 0 -14 -3 -6 -6z"/>
<path d="M5491 5623 c1 -34 2 -35 9 -13 11 36 11 50 0 50 -5 0 -10 -17 -9 -37z"/>
<path d="M5133 5393 c3 -5 -51 -8 -121 -8 -91 0 -126 -3 -130 -12 -2 -7 -9
-13 -15 -13 -7 0 -18 -9 -25 -20 -7 -11 -9 -20 -5 -20 5 0 17 -14 28 -31 11
-17 37 -39 59 -49 37 -19 60 -19 151 -5 11 2 49 4 85 4 56 1 62 3 50 15 -15
15 -69 30 -144 42 -29 4 -36 8 -27 17 14 14 70 13 135 -2 28 -6 58 -8 69 -5
17 5 17 7 2 24 -9 10 -28 21 -41 24 -14 4 -22 11 -19 16 3 5 -3 14 -14 19 -23
13 -44 14 -38 4z m14 -129 c-3 -3 -12 -4 -19 -1 -8 3 -5 6 6 6 11 1 17 -2 13
-5z"/>
<path d="M4971 5201 c-20 -13 2 -22 70 -28 69 -7 83 12 17 22 -24 3 -50 8 -58
11 -8 2 -21 0 -29 -5z"/>
<path d="M5040 5029 c0 -13 111 -122 117 -115 10 9 -22 54 -54 76 -20 14 -43
31 -50 38 -10 11 -13 11 -13 1z"/>
<path d="M4832 5007 c-23 -13 -70 -14 -108 -2 -30 9 -38 -20 -17 -56 22 -37
53 -45 100 -28 44 17 52 34 21 43 l-23 7 23 9 c12 5 28 7 35 4 8 -3 27 0 43 7
l29 12 -25 7 c-37 12 -52 11 -78 -3z"/>
<path d="M4606 4893 c-6 -14 -5 -15 5 -6 7 7 10 15 7 18 -3 3 -9 -2 -12 -12z"/>
<path d="M4740 4870 c-59 -26 -95 -50 -98 -63 -4 -18 55 -76 76 -77 7 0 11 -4
8 -9 -11 -18 138 -12 204 8 113 35 193 102 160 135 -12 12 -324 18 -350 6z
m235 -20 c3 -5 13 -10 20 -10 22 0 54 -31 48 -46 -3 -8 -12 -10 -26 -6 -31 10
-92 6 -157 -11 -14 -3 -49 -8 -77 -10 -45 -3 -53 -1 -53 13 0 18 23 43 32 35
3 -3 11 1 17 9 7 8 19 12 27 9 8 -3 21 0 29 7 8 7 21 10 28 7 7 -2 30 -1 52 3
22 4 43 8 47 9 4 0 10 -3 13 -9z"/>
<path d="M4440 4782 c0 -4 11 -23 25 -42 30 -40 33 -29 5 18 -19 31 -30 40
-30 24z"/>
<path d="M5606 4745 c12 -109 44 -261 91 -428 4 -15 7 -16 19 -6 40 33 56 139
33 224 -6 22 -11 50 -12 62 -1 12 -5 25 -9 29 -5 4 -8 16 -8 26 0 29 -31 118
-41 118 -5 0 -9 -9 -9 -21 0 -12 -8 -37 -17 -57 l-18 -37 -17 70 c-16 63 -17
65 -12 20z"/>
<path d="M4733 4660 c9 -6 17 -22 17 -35 0 -20 6 -24 48 -30 30 -4 58 -2 77 7
l30 13 -47 3 c-27 2 -48 8 -48 14 0 6 -10 8 -25 4 -19 -5 -23 -3 -19 9 4 8 2
15 -4 15 -6 0 -19 3 -29 6 -17 5 -17 5 0 -6z"/>
<path d="M11386 4610 c-86 -27 -124 -136 -73 -211 31 -47 81 -71 136 -66 70 7
112 49 127 126 l7 31 -77 0 c-74 0 -76 -1 -76 -25 0 -22 4 -25 40 -25 22 0 40
-3 40 -7 -1 -30 -52 -56 -90 -48 -89 20 -91 157 -4 179 28 7 84 -10 84 -25 0
-5 11 -3 25 3 69 31 -58 94 -139 68z"/>
<path d="M11780 4475 l0 -145 100 0 100 0 0 25 c0 24 -2 25 -70 25 l-70 0 0
35 0 35 70 0 c68 0 70 1 70 25 0 24 -2 25 -70 25 l-70 0 0 35 0 35 70 0 c68 0
70 1 70 25 l0 25 -100 0 -100 0 0 -145z"/>
<path d="M12200 4595 c0 -22 4 -25 40 -25 l40 0 0 -120 0 -120 30 0 30 0 0
120 0 120 40 0 c36 0 40 3 40 25 l0 25 -110 0 -110 0 0 -25z"/>
<path d="M12921 4483 c21 -76 39 -141 39 -145 0 -5 15 -8 33 -8 l33 0 23 95
c13 52 25 95 27 95 3 0 22 -66 44 -147 9 -38 14 -43 40 -43 25 0 30 5 44 48
18 55 66 228 66 237 0 3 -14 5 -31 3 -31 -3 -32 -5 -54 -96 -12 -51 -25 -95
-27 -98 -5 -4 -18 38 -48 154 -9 34 -15 42 -33 42 -21 0 -26 -10 -47 -100 -14
-55 -28 -100 -31 -100 -3 0 -16 45 -28 100 l-22 100 -33 0 -34 0 39 -137z"/>
<path d="M13480 4475 l0 -145 30 0 30 0 0 145 0 145 -30 0 -30 0 0 -145z"/>
<path d="M13770 4475 l0 -145 30 0 29 0 3 92 3 91 64 -91 c56 -79 69 -92 93
-92 l28 0 0 145 0 145 -30 0 -29 0 -3 -89 -3 -90 -63 90 c-55 77 -67 89 -93
89 l-29 0 0 -145z"/>
<path d="M14250 4595 c0 -22 4 -25 40 -25 l40 0 0 -120 0 -120 30 0 30 0 0
120 0 120 40 0 c36 0 40 3 40 25 l0 25 -110 0 -110 0 0 -25z"/>
<path d="M14680 4475 l0 -145 100 0 100 0 0 25 c0 24 -2 25 -70 25 l-70 0 0
35 0 35 70 0 c68 0 70 1 70 25 0 24 -2 25 -70 25 l-70 0 0 35 0 35 70 0 c68 0
70 1 70 25 l0 25 -100 0 -100 0 0 -145z"/>
<path d="M15100 4476 l0 -146 30 0 c29 0 30 1 30 50 0 46 2 50 24 50 19 0 31
-11 52 -50 24 -45 31 -50 61 -50 25 0 32 4 27 13 -4 6 -18 29 -32 51 l-24 39
29 22 c23 19 28 31 28 69 0 73 -24 90 -135 94 l-90 4 0 -146z m154 78 c35 -34
6 -74 -55 -74 l-39 0 0 45 0 45 39 0 c23 0 46 -7 55 -16z"/>
<path d="M15850 4476 l0 -146 30 0 c29 0 30 1 30 50 0 45 2 50 23 50 17 0 30
-13 52 -50 26 -44 33 -50 62 -50 l32 0 -30 52 c-30 51 -30 52 -11 67 31 25 44
60 38 96 -11 56 -36 70 -137 73 l-89 4 0 -146z m154 78 c34 -33 3 -74 -56 -74
l-38 0 0 45 0 45 39 0 c23 0 46 -7 55 -16z"/>
<path d="M16300 4475 l0 -145 100 0 100 0 0 25 c0 24 -2 25 -70 25 l-70 0 0
35 0 35 70 0 c68 0 70 1 70 25 0 24 -2 25 -70 25 l-70 0 0 35 0 35 70 0 c68 0
70 1 70 25 l0 25 -100 0 -100 0 0 -145z"/>
<path d="M16774 4548 c-15 -40 -39 -106 -55 -145 l-27 -73 34 0 c28 0 35 4 40
25 6 23 10 25 70 25 60 0 65 -2 74 -25 7 -19 17 -25 40 -25 16 0 30 3 30 7 0
4 -24 69 -52 145 l-52 138 -37 0 c-37 0 -37 -1 -65 -72z m90 -55 c22 -63 22
-63 -24 -63 -25 0 -40 5 -40 13 0 22 33 106 41 101 4 -2 14 -25 23 -51z"/>
<path d="M17190 4475 l0 -145 73 0 c118 0 187 53 187 145 0 92 -69 145 -187
145 l-73 0 0 -145z m171 66 c61 -61 26 -148 -64 -158 l-47 -6 0 97 0 96 41 0
c31 0 47 -6 70 -29z"/>
<path d="M17675 4535 c51 -79 55 -90 55 -145 0 -60 0 -60 30 -60 l30 0 0 63
c0 58 3 67 50 137 27 41 50 78 50 83 0 4 -13 7 -29 7 -25 0 -35 -8 -63 -55
-18 -30 -36 -55 -39 -55 -4 0 -22 25 -40 55 -29 49 -37 55 -66 55 l-33 0 55
-85z"/>
<path d="M15530 4435 c0 -23 3 -25 50 -25 47 0 50 2 50 25 0 23 -3 25 -50 25
-47 0 -50 -2 -50 -25z"/>
<path d="M4151 4374 c0 -11 3 -14 6 -6 3 7 2 16 -1 19 -3 4 -6 -2 -5 -13z"/>
<path d="M4526 4228 c-9 -20 -13 -44 -9 -54 5 -13 10 -8 24 21 13 26 16 43 9
54 -7 13 -12 9 -24 -21z"/>
<path d="M4620 4070 c0 -78 155 -176 333 -210 20 -4 37 -4 37 -1 0 11 -140
111 -155 111 -8 0 -150 94 -156 103 -4 6 -14 7 -23 4 -9 -4 -20 1 -25 11 -8
14 -10 10 -11 -18z"/>
<path d="M4540 4024 c0 -18 152 -142 230 -187 65 -37 186 -84 248 -95 49 -9
52 -8 51 12 0 11 -3 16 -5 10 -11 -27 -255 62 -352 128 -50 34 -152 117 -164
133 -5 7 -8 6 -8 -1z"/>
<path d="M5475 3900 c-22 -10 -78 -37 -125 -59 -47 -22 -107 -54 -135 -70 -27
-17 -59 -30 -69 -31 -15 0 -17 -3 -9 -11 12 -12 198 2 293 22 58 12 210 71
210 82 0 5 -6 6 -12 4 -7 -3 -38 -13 -68 -22 -30 -10 -83 -26 -118 -37 -35
-11 -66 -17 -69 -15 -10 11 8 25 39 31 46 9 80 40 76 68 -2 14 5 30 17 40 25
22 20 22 -30 -2z m-115 -130 c0 -12 -65 -30 -110 -30 -32 0 -33 1 -14 14 30
21 124 33 124 16z"/>
<path d="M12660 3685 l0 -175 115 0 115 0 0 40 0 40 -70 0 -70 0 0 135 0 135
-45 0 -45 0 0 -175z"/>
<path d="M12940 3685 l0 -175 45 0 45 0 0 175 0 175 -45 0 -45 0 0 -175z"/>
<path d="M13187 3845 c-117 -41 -153 -186 -69 -274 64 -68 161 -77 250 -25
l42 25 0 70 0 70 -82 -3 -83 -3 -3 -37 -3 -38 40 0 c42 0 58 -21 25 -34 -39
-15 -91 -6 -118 20 -80 81 37 217 125 145 22 -17 26 -18 56 -3 18 9 33 19 33
22 0 15 -60 61 -91 70 -45 13 -76 12 -122 -5z"/>
<path d="M13460 3685 l0 -175 45 0 45 0 0 70 0 70 70 0 70 0 0 -70 0 -70 45 0
45 0 0 175 0 175 -45 0 -45 0 0 -65 0 -65 -70 0 -70 0 0 65 0 65 -45 0 -45 0
0 -175z"/>
<path d="M13832 3823 c3 -38 3 -38 51 -41 l47 -3 0 -135 0 -134 45 0 45 0 0
134 0 135 48 3 c47 3 47 3 50 41 l3 37 -146 0 -146 0 3 -37z"/>
<path d="M14265 3838 c3 -13 25 -90 49 -173 l43 -150 46 -3 c52 -3 46 -12 77
128 21 92 26 90 51 -21 l24 -104 47 -3 c38 -2 47 0 52 15 3 10 23 83 46 163
22 80 43 151 45 158 3 8 -10 12 -45 12 -43 0 -50 -3 -55 -22 -2 -13 -14 -66
-26 -118 l-22 -95 -30 118 -29 117 -34 0 c-37 0 -35 4 -70 -144 -10 -42 -20
-76 -24 -76 -3 0 -16 50 -29 110 l-24 110 -49 0 c-45 0 -48 -1 -43 -22z"/>
<path d="M14770 3685 l0 -175 45 0 45 0 0 175 0 175 -45 0 -45 0 0 -175z"/>
<path d="M14920 3686 l0 -176 45 0 45 0 0 102 0 102 72 -102 72 -102 43 0 43
0 0 175 0 175 -45 0 -44 0 -3 -94 -3 -94 -65 91 c-66 92 -66 92 -113 95 l-47
3 0 -175z"/>
<path d="M15292 3823 c3 -38 3 -38 51 -41 l47 -3 0 -135 0 -134 45 0 45 0 0
134 0 135 48 3 c47 3 47 3 50 41 l3 37 -146 0 -146 0 3 -37z"/>
<path d="M15610 3685 l0 -175 125 0 125 0 0 40 0 40 -80 0 -80 0 0 30 0 30 80
0 80 0 0 40 0 40 -80 0 c-79 0 -80 0 -80 25 0 25 1 25 80 25 l80 0 0 40 0 40
-125 0 -125 0 0 -175z"/>
<path d="M15920 3685 l0 -175 45 0 45 0 0 60 c0 57 1 60 25 60 20 0 30 -11 55
-60 l30 -60 51 0 51 0 -36 63 -35 63 29 26 c37 32 47 82 26 132 -22 52 -61 66
-186 66 l-100 0 0 -175z m198 86 c8 -4 12 -19 10 -32 -3 -22 -9 -24 -60 -27
l-58 -3 0 36 0 35 48 0 c26 0 53 -4 60 -9z"/>
<path d="M16315 3842 c-83 -39 -86 -135 -7 -176 15 -7 51 -19 80 -26 40 -9 52
-16 50 -29 -4 -23 -79 -27 -121 -6 -31 16 -33 15 -55 -11 l-24 -27 24 -18 c25
-19 92 -39 132 -39 49 0 104 30 120 65 19 39 20 56 5 89 -13 27 -58 52 -111
62 -45 9 -68 22 -68 39 0 20 75 20 110 1 23 -13 26 -12 47 17 l23 31 -35 19
c-55 28 -122 31 -170 9z"/>
<path d="M5061 3703 c0 -10 4 -27 9 -38 7 -16 9 -13 9 18 1 20 -3 37 -9 37 -5
0 -10 -8 -9 -17z"/>
<path d="M3681 3567 c-1 -11 -9 -21 -18 -23 -13 -4 -19 -17 -21 -52 -2 -26
-11 -55 -20 -66 -14 -15 -14 -18 -2 -14 8 2 21 22 28 44 7 21 20 54 28 72 8
18 13 38 10 45 -2 7 -5 4 -5 -6z"/>
<path d="M6934 3092 c9 -14 30 -66 31 -77 4 -27 39 -133 53 -160 9 -16 15 -34
14 -38 -1 -4 8 -1 21 8 13 8 25 13 28 11 2 -2 276 -7 609 -10 588 -6 1543 -22
1825 -30 120 -4 141 -7 152 -22 11 -15 12 -58 7 -204 -4 -102 -10 -189 -14
-194 -10 -10 -239 -9 -950 5 -300 6 -773 14 -1053 17 -483 7 -507 6 -507 -11
0 -23 44 -199 63 -252 l14 -40 94 -10 c52 -5 121 -8 154 -5 57 6 208 4 400 -5
118 -5 139 -5 210 0 76 6 336 6 346 0 4 -3 211 -7 460 -11 299 -3 458 -9 466
-16 7 -6 28 -8 47 -5 19 3 53 1 76 -4 30 -7 46 -6 56 2 9 7 34 9 76 4 75 -9
126 -11 408 -19 118 -3 260 -7 315 -10 55 -3 180 -7 278 -10 l177 -6 0 520 0
520 -112 -1 c-167 0 -922 10 -1163 16 -115 2 -388 7 -605 10 -521 8 -759 12
-1085 19 -773 16 -897 17 -891 8z m3336 -323 c8 -13 31 -246 33 -344 l2 -70
-65 -1 c-36 -1 -80 0 -98 3 l-34 6 4 204 c2 167 6 206 18 214 19 12 131 3 140
-12z"/>
<path d="M12242 2882 c3 -150 4 -161 28 -195 34 -50 88 -72 175 -71 75 0 115
15 151 56 35 39 44 84 44 229 l0 139 -55 0 -55 0 0 -143 c0 -141 0 -144 -26
-168 -18 -16 -37 -24 -64 -24 -27 0 -46 8 -64 24 -26 24 -26 27 -26 168 l0
143 -56 0 -55 0 3 -158z"/>
<path d="M12720 2826 l0 -216 55 0 55 0 0 75 0 75 75 0 c114 0 159 32 171 122
6 51 -16 101 -59 132 -25 18 -46 21 -163 24 l-134 4 0 -216z m228 108 c12 -8
22 -24 22 -34 0 -34 -28 -50 -86 -50 l-54 0 0 50 0 50 48 0 c27 0 57 -7 70
-16z"/>
<path d="M13270 2995 l0 -45 60 0 60 0 0 -170 0 -170 55 0 55 0 0 170 0 170
60 0 60 0 0 45 0 45 -175 0 -175 0 0 -45z"/>
<path d="M13801 3031 c-53 -14 -114 -62 -139 -111 -20 -37 -23 -56 -19 -109 9
-122 93 -196 222 -195 80 0 136 23 178 74 64 75 61 207 -6 278 -50 54 -158 82
-236 63z m135 -107 c43 -29 58 -109 30 -162 -38 -74 -164 -74 -202 0 -17 33
-18 88 -2 124 25 55 117 75 174 38z"/>
<path d="M14312 2913 l3 -127 33 -7 c22 -4 43 -2 60 7 36 19 97 18 116 -2 20
-20 20 -48 0 -65 -22 -18 -109 -15 -141 6 -26 18 -27 17 -55 -16 l-28 -34 25
-22 c30 -27 124 -47 179 -39 109 17 170 109 133 199 -28 67 -122 98 -189 63
l-28 -15 0 45 0 44 100 0 100 0 0 45 0 45 -155 0 -156 0 3 -127z"/>
<path d="M14816 3030 c-68 -21 -126 -116 -126 -205 0 -62 28 -131 69 -168 96
-86 238 -41 277 88 52 175 -67 330 -220 285z m85 -90 c18 0 39 -61 39 -115 0
-63 -20 -110 -50 -118 -56 -15 -90 29 -90 118 0 83 32 132 78 119 8 -2 18 -4
23 -4z"/>
<path d="M15134 3021 c-110 -67 -19 -226 102 -180 81 30 93 136 20 180 -17 10
-44 19 -61 19 -16 0 -44 -9 -61 -19z m97 -62 c16 -30 -3 -69 -34 -69 -29 0
-47 17 -47 45 0 45 60 63 81 24z"/>
<path d="M15901 3031 c-87 -22 -161 -112 -161 -196 0 -136 85 -219 225 -219
80 0 136 23 178 74 64 75 61 207 -6 278 -50 54 -158 82 -236 63z m135 -107
c44 -30 58 -112 27 -165 -9 -16 -35 -35 -57 -44 -36 -15 -43 -15 -81 -1 -48
19 -75 58 -75 111 0 99 102 153 186 99z"/>
<path d="M16250 2825 l0 -215 55 0 55 0 0 85 0 85 100 0 100 0 0 45 0 45 -100
0 -100 0 0 40 0 40 100 0 100 0 0 45 0 45 -155 0 -155 0 0 -215z"/>
<path d="M16620 2825 l0 -215 55 0 55 0 0 85 0 85 100 0 100 0 0 45 0 45 -100
0 -100 0 0 40 0 40 100 0 100 0 0 45 0 45 -155 0 -155 0 0 -215z"/>
<path d="M15291 2830 c-72 -110 -131 -203 -131 -205 0 -3 11 -5 24 -5 20 0 45
32 155 200 72 110 131 202 131 205 0 3 -11 5 -24 5 -20 0 -45 -32 -155 -200z"/>
<path d="M5690 2970 c-11 -7 -5 -9 22 -7 21 1 38 5 38 10 0 10 -42 8 -60 -3z"/>
<path d="M5610 2950 c0 -5 5 -10 10 -10 6 0 10 5 10 10 0 6 -4 10 -10 10 -5 0
-10 -4 -10 -10z"/>
<path d="M5920 2944 c0 -6 17 -26 38 -45 l37 -34 -35 40 c-19 22 -36 42 -37
44 -2 2 -3 0 -3 -5z"/>
<path d="M5385 2906 c-99 -25 -139 -39 -85 -30 57 9 192 42 198 48 9 10 -20 5
-113 -18z"/>
<path d="M5430 2863 c0 -5 -14 -7 -32 -5 -30 5 -32 3 -19 -12 7 -9 19 -16 26
-16 16 0 40 28 31 37 -3 3 -6 2 -6 -4z"/>
<path d="M5720 2854 c-36 -11 -38 -13 -11 -9 18 3 42 5 52 5 11 0 19 5 19 10
0 12 -3 12 -60 -6z"/>
<path d="M6145 2860 c-19 -8 -19 -9 3 -9 12 -1 22 4 22 9 0 6 -1 10 -2 9 -2 0
-12 -4 -23 -9z"/>
<path d="M3683 2832 c15 -9 27 -20 27 -24 0 -16 -19 -17 -34 -2 -15 14 -16 14
-16 -1 0 -8 -7 -27 -17 -41 -21 -32 -21 -116 1 -149 19 -29 8 -39 -37 -31
l-32 6 30 -15 c17 -8 41 -14 55 -15 14 0 44 -9 68 -20 44 -20 55 -17 25 7 -14
10 -14 13 -3 11 11 -2 14 6 13 32 -4 63 -15 125 -24 135 -5 5 -9 35 -9 67 l0
58 -37 0 -38 -1 28 -17z"/>
<path d="M4980 2835 c17 -20 101 -77 106 -72 5 5 -101 87 -112 87 -3 0 -1 -7
6 -15z"/>
<path d="M3421 2824 c0 -11 3 -14 6 -6 3 7 2 16 -1 19 -3 4 -6 -2 -5 -13z"/>
<path d="M6753 2822 c-29 -8 -53 -19 -53 -24 0 -5 10 -6 23 -2 40 12 87 33 87
38 0 4 -1 5 -2 5 -2 -1 -27 -8 -55 -17z"/>
<path d="M5903 2823 c9 -2 23 -2 30 0 6 3 -1 5 -18 5 -16 0 -22 -2 -12 -5z"/>
<path d="M15382 2805 c-99 -43 -58 -195 53 -195 112 0 152 153 51 195 -43 18
-62 18 -104 0z m86 -57 c17 -17 15 -63 -3 -78 -10 -8 -23 -9 -42 -3 -50 17
-40 93 11 93 12 0 27 -5 34 -12z"/>
<path d="M5818 2803 c7 -3 16 -2 19 1 4 3 -2 6 -13 5 -11 0 -14 -3 -6 -6z"/>
<path d="M5590 2760 c0 -13 20 -13 40 0 12 8 9 10 -12 10 -16 0 -28 -4 -28
-10z"/>
<path d="M3497 2753 c-4 -3 -7 -20 -6 -37 l1 -31 9 34 c10 33 8 47 -4 34z"/>
<path d="M6712 2715 c0 -16 2 -22 5 -12 2 9 2 23 0 30 -3 6 -5 -1 -5 -18z"/>
<path d="M5418 2723 c7 -3 16 -2 19 1 4 3 -2 6 -13 5 -11 0 -14 -3 -6 -6z"/>
<path d="M5160 2708 c0 -28 79 -48 110 -28 11 7 6 8 -17 4 -24 -5 -40 -1 -62
16 -21 14 -31 17 -31 8z"/>
<path d="M3480 2648 c0 -35 -10 -59 -21 -52 -5 3 -9 -18 -9 -45 0 -39 4 -51
15 -51 11 0 15 11 15 43 0 23 4 56 9 73 5 18 5 37 0 45 -6 10 -9 6 -9 -13z"/>
<path d="M6756 2663 c-3 -4 -6 -24 -6 -45 0 -21 -4 -38 -10 -38 -5 0 -10 18
-10 40 0 22 -5 40 -11 40 -6 0 -8 -8 -5 -17 3 -10 13 -119 21 -243 9 -124 20
-259 24 -300 l8 -75 2 94 c0 51 8 119 16 151 23 90 35 271 18 295 -7 11 -13
36 -13 56 0 34 -19 57 -34 42z"/>
<path d="M3387 2604 c-4 -22 -6 -52 -6 -69 1 -23 4 -17 14 25 8 29 10 60 6 68
-5 10 -10 2 -14 -24z"/>
<path d="M5050 2630 c-11 -8 -7 -9 15 -4 37 8 45 14 19 14 -10 0 -26 -5 -34
-10z"/>
<path d="M5131 2554 c0 -11 3 -14 6 -6 3 7 2 16 -1 19 -3 4 -6 -2 -5 -13z"/>
<path d="M3820 2475 c14 -8 32 -14 40 -14 8 0 0 6 -19 14 -42 19 -54 19 -21 0z"/>
<path d="M13754 2106 l-34 -34 0 -311 c0 -202 4 -318 11 -334 6 -13 23 -31 39
-40 26 -16 100 -17 835 -17 l807 0 34 34 34 34 0 317 0 317 -34 34 -34 34
-812 0 -812 0 -34 -34z m263 -263 c13 -6 8 -9 -22 -13 -32 -4 -41 -10 -43 -27
-3 -17 4 -25 30 -36 48 -20 63 -42 50 -72 -16 -34 -102 -48 -102 -16 0 4 15 5
34 3 26 -3 37 1 45 16 12 22 6 29 -46 56 -71 36 -20 118 54 89z m366 -13 c51
-40 44 -126 -12 -155 -42 -21 -59 -19 -92 14 -79 80 17 209 104 141z m173 -1
c33 -27 -2 -89 -51 -89 -22 0 -25 -4 -25 -35 0 -24 -5 -35 -15 -35 -11 0 -14
17 -14 82 0 52 5 86 12 91 15 10 75 1 93 -14z m431 -3 c23 -20 28 -32 28 -70
0 -53 -23 -82 -72 -92 -27 -5 -37 -1 -63 24 -41 42 -42 92 -1 133 36 36 70 37
108 5z m-897 -21 l0 -35 50 0 50 0 0 35 c0 19 5 35 10 35 6 0 10 -35 10 -85 0
-50 -4 -85 -10 -85 -5 0 -10 18 -10 40 l0 40 -50 0 -50 0 0 -40 c0 -22 -4 -40
-10 -40 -6 0 -10 35 -10 85 0 50 4 85 10 85 6 0 10 -16 10 -35z m652 -32 l43
-68 3 68 c4 97 22 83 22 -18 0 -107 -12 -110 -71 -17 l-44 67 -3 -67 c-4 -98
-22 -84 -22 17 0 108 13 111 72 18z m329 12 c7 -31 15 -58 19 -60 4 -2 15 23
25 55 10 34 24 60 31 60 8 0 21 -26 31 -60 10 -33 21 -60 24 -60 4 0 12 27 19
60 8 40 18 60 27 60 8 0 12 -6 10 -12 -3 -7 -13 -46 -23 -85 -10 -40 -23 -73
-29 -73 -14 0 -31 36 -41 84 -9 52 -21 53 -34 4 -15 -59 -28 -88 -39 -88 -10
0 -35 72 -47 136 -11 58 14 39 27 -21z"/>
<path d="M14296 1814 c-26 -25 -30 -63 -13 -100 13 -27 23 -34 45 -34 39 0 62
28 62 77 0 63 -55 96 -94 57z"/>
<path d="M14480 1795 c0 -31 3 -35 25 -35 31 0 52 34 34 56 -6 8 -22 14 -35
14 -21 0 -24 -5 -24 -35z"/>
<path d="M14903 1822 c-35 -22 -37 -114 -2 -132 49 -27 89 4 89 67 0 57 -46
91 -87 65z"/>
<path d="M5695 2120 c3 -5 11 -10 16 -10 6 0 7 5 4 10 -3 6 -11 10 -16 10 -6
0 -7 -4 -4 -10z"/>
<path d="M7283 2012 c-23 -2 -33 -8 -33 -20 0 -25 52 -225 62 -238 5 -8 208
-13 670 -17 365 -3 755 -8 868 -11 720 -17 790 -19 799 -30 4 -6 5 -105 2
-221 l-6 -210 -315 2 c-330 1 -1489 20 -1742 29 l-148 4 0 -29 c0 -20 -10 -39
-30 -58 -49 -46 -38 -109 31 -188 27 -31 49 -60 49 -66 0 -5 5 -8 11 -6 6 1
14 -4 17 -12 3 -9 0 -11 -9 -6 -11 6 -12 5 -1 -6 10 -11 63 -13 280 -10 347 4
426 6 439 14 19 12 97 11 101 -1 5 -16 37 -15 62 0 17 11 22 10 29 0 6 -10 34
-13 107 -12 55 0 113 1 129 1 17 0 37 0 45 1 46 4 81 -3 74 -14 -5 -8 2 -9 27
-4 92 18 169 24 223 17 33 -4 75 -5 93 -1 35 8 307 -3 525 -21 70 -6 132 -8
137 -4 6 3 79 1 163 -5 181 -12 316 -18 736 -35 l112 -4 0 549 c0 303 -3 550
-7 551 -54 5 -688 16 -1293 24 -781 9 -1176 15 -1283 20 -61 2 -285 7 -497 10
-211 4 -387 7 -390 8 -3 2 -20 1 -37 -1z m3079 -324 c13 -10 19 -49 29 -168 7
-85 13 -182 14 -215 l0 -60 -144 3 c-79 1 -147 5 -152 8 -5 3 -9 100 -9 215 0
208 0 210 23 219 35 14 220 12 239 -2z"/>
<path d="M6761 1994 c0 -11 3 -14 6 -6 3 7 2 16 -1 19 -3 4 -6 -2 -5 -13z"/>
<path d="M6846 1573 c-3 -4 -6 -19 -6 -35 0 -17 -8 -33 -20 -40 -21 -13 -24
-38 -11 -72 6 -16 13 -9 39 44 18 35 32 67 32 72 0 14 -27 38 -34 31z"/>
<path d="M4538 1513 c7 -3 16 -2 19 1 4 3 -2 6 -13 5 -11 0 -14 -3 -6 -6z"/>
<path d="M6833 1342 c-9 -5 -10 -17 -4 -37 5 -17 10 -28 10 -25 1 3 5 20 10
38 10 32 6 38 -16 24z"/>
<path d="M6866 1221 c-4 -5 3 -7 14 -4 23 6 26 13 6 13 -8 0 -17 -4 -20 -9z"/>
<path d="M7035 1165 c-38 -13 -89 -27 -112 -30 l-42 -7 24 -63 c43 -115 38
-113 98 -48 28 31 73 78 100 105 26 26 47 53 47 58 0 15 -38 10 -115 -15z"/>
<path d="M7173 1103 c-14 -5 -18 -23 -5 -23 5 0 17 7 28 15 14 11 15 14 4 14
-8 0 -21 -3 -27 -6z"/>
<path d="M7315 989 c-27 -4 -106 -21 -175 -38 -69 -17 -135 -33 -147 -36 -14
-3 -23 -13 -23 -25 0 -27 18 -35 38 -17 28 25 112 54 226 78 l106 22 42 -28
c35 -23 39 -24 24 -7 -11 12 -14 22 -8 22 17 0 54 -39 47 -49 -5 -9 24 -25 32
-17 6 6 -23 60 -39 73 -26 20 -74 29 -123 22z"/>
<path d="M7008 846 c-15 -11 -16 -19 -7 -52 12 -43 29 -68 29 -41 0 9 8 32 17
52 15 31 15 37 3 45 -19 12 -22 12 -42 -4z"/>
<path d="M7111 829 c-1 -9 -10 -24 -21 -34 -11 -10 -17 -22 -14 -26 3 -5 -1
-9 -9 -9 -16 0 -44 -47 -33 -57 3 -4 13 0 20 8 24 24 68 110 62 122 -2 7 -5 5
-5 -4z"/>
<path d="M7309 820 c-13 -10 -19 -19 -13 -20 7 0 22 9 35 20 13 10 19 19 13
20 -7 0 -22 -9 -35 -20z"/>
<path d="M3549 636 c6 -8 22 -16 34 -19 22 -6 22 -6 -2 14 -27 22 -49 26 -32
5z"/>
<path d="M3385 597 c-12 -19 -44 -44 -80 -62 -32 -16 -60 -34 -61 -40 -2 -9
135 -105 151 -105 4 0 32 -18 64 -40 31 -22 72 -42 91 -45 28 -4 31 -4 14 4
-33 14 -40 32 -19 47 17 13 16 14 -13 20 -23 5 -34 14 -38 30 -6 24 -24 33
-24 12 0 -6 -2 -9 -5 -7 -9 10 8 49 21 49 16 0 20 65 4 75 -5 3 -10 15 -10 26
0 10 -6 19 -12 19 -10 0 -9 3 1 9 10 7 8 12 -10 25 -34 23 -51 19 -74 -17z"/>
<path d="M3610 598 c0 -8 11 -29 25 -48 14 -19 25 -40 25 -48 0 -8 11 -23 25
-34 41 -32 27 -78 -22 -78 -13 0 -23 -4 -23 -10 0 -15 59 -12 121 6 30 9 56
17 57 19 2 2 -4 20 -13 39 -16 33 -82 96 -100 96 -5 0 -28 16 -51 36 -27 21
-44 30 -44 22z"/>
<path d="M3515 430 c3 -5 15 -10 26 -10 10 0 19 5 19 10 0 6 -12 10 -26 10
-14 0 -23 -4 -19 -10z"/>
<path d="M7413 386 c52 -19 75 -42 87 -87 9 -34 14 -38 40 -36 25 2 27 4 15
13 -17 13 -9 25 12 17 12 -5 13 1 7 33 -9 50 -12 53 -30 29 -15 -20 -15 -20
-29 0 -29 41 -37 45 -88 45 l-52 -1 38 -13z"/>
<path d="M4211 314 c0 -11 3 -14 6 -6 3 7 2 16 -1 19 -3 4 -6 -2 -5 -13z"/>
<path d="M4220 221 c0 -11 4 -22 9 -25 4 -3 6 6 3 19 -5 30 -12 33 -12 6z"/>
<path d="M7147 126 c-4 -10 -5 -21 -2 -24 9 -9 17 6 13 25 -3 17 -4 17 -11 -1z"/>
</g>
</svg>
